<?xml version="1.0" encoding="UTF-8" standalone="no"?>
<svg width="210.362mm" height="79.931mm" viewBox="0 0 9938.34 3776.27"
 xmlns="http://www.w3.org/2000/svg" xmlns:xlink="http://www.w3.org/1999/xlink" version="1.2" baseProfile="full">
<title>basso.musicxml (1)</title>
<desc>Generated by MuseScore Studio 4.7.4</desc>
<path class="" fill="#ffffff" fill-rule="evenodd" d="M0,0 L9938.34,0 L9938.34,3776.27 L0,3776.27 L0,0 "/>
<polyline class="StaffLines" fill="none" stroke="#000000" stroke-width="7.48" stroke-linejoin="bevel" points="440,1417.51 9926.34,1417.51" />
<polyline class="StaffLines" fill="none" stroke="#000000" stroke-width="7.48" stroke-linejoin="bevel" points="440,1485.51 9926.34,1485.51" />
<polyline class="StaffLines" fill="none" stroke="#000000" stroke-width="7.48" stroke-linejoin="bevel" points="440,1553.51 9926.34,1553.51" />
<polyline class="StaffLines" fill="none" stroke="#000000" stroke-width="7.48" stroke-linejoin="bevel" points="440,1621.51 9926.34,1621.51" />
<polyline class="StaffLines" fill="none" stroke="#000000" stroke-width="7.48" stroke-linejoin="bevel" points="440,1689.51 9926.34,1689.51" />
<polyline class="StaffLines" fill="none" stroke="#000000" stroke-width="7.48" stroke-linejoin="bevel" points="168,3287.5 9926.34,3287.5" />
<polyline class="StaffLines" fill="none" stroke="#000000" stroke-width="7.48" stroke-linejoin="bevel" points="168,3355.5 9926.34,3355.5" />
<polyline class="StaffLines" fill="none" stroke="#000000" stroke-width="7.48" stroke-linejoin="bevel" points="168,3423.5 9926.34,3423.5" />
<polyline class="StaffLines" fill="none" stroke="#000000" stroke-width="7.48" stroke-linejoin="bevel" points="168,3491.5 9926.34,3491.5" />
<polyline class="StaffLines" fill="none" stroke="#000000" stroke-width="7.48" stroke-linejoin="bevel" points="168,3559.5 9926.34,3559.5" />
<path class="Text" d="M4664.2,15.4531 L4650.27,15.4531 L4635.95,37.4688 C4612.09,18.75 4595.95,12.5156 4569.16,12.5156 C4540.16,12.5156 4517.41,20.5938 4494.28,39.3125 C4457.95,68.6719 4441.08,105.734 4441.08,155.281 C4441.08,192.719 4451.72,223.906 4473.36,247.766 C4496.13,273.453 4529.89,288.5 4565.13,288.5 C4595.95,288.5 4617.59,278.969 4641.45,255.109 L4655.03,288.141 L4670.45,288.141 L4670.45,207.391 C4670.45,188.688 4670.45,187.953 4672.66,184.641 C4675.95,180.609 4682.56,179.5 4703.48,179.5 L4708.98,179.5 L4708.98,162.25 L4592.28,162.25 L4592.28,179.5 L4599.25,179.5 C4630.08,179.5 4632.64,181.344 4632.64,201.891 C4632.64,217.672 4630.08,231.984 4625.31,240.797 C4616.13,258.781 4592.64,271.25 4568.78,271.25 C4544.94,271.25 4521.44,259.141 4508.97,240.797 C4495.39,220.25 4489.52,194.547 4489.52,155.281 C4489.52,73.4375 4516.67,29.7656 4567.69,29.7656 C4609.53,29.7656 4638.52,59.8594 4653.56,118.578 L4669.34,118.578 L4664.2,15.4531 M4786.53,12.5156 L4718.63,16.5625 L4718.63,32.3438 L4736.61,32.3438 C4750.19,32.7031 4752.03,34.9063 4752.03,50.6875 L4752.03,255.109 C4751.66,260.609 4751.3,262.813 4749.83,264.656 C4747.25,267.953 4740.28,269.422 4724.5,269.781 L4721.94,269.781 L4721.94,283 L4816.98,283 L4816.98,269.781 L4814.42,269.781 C4789.83,269.047 4786.53,267.219 4786.53,254 L4786.53,12.5156 M4920.14,106.469 C4875,106.469 4840.14,146.469 4840.14,197.859 C4840.14,248.141 4875.36,288.5 4919.41,288.5 C4963.45,288.5 4998.69,248.141 4998.69,197.484 C4998.69,147.203 4963.45,106.469 4920.14,106.469 M4920.14,122.25 C4945.83,122.25 4960.14,149.047 4960.14,197.484 C4960.14,246.297 4945.83,272.719 4919.41,272.719 C4892.98,272.719 4878.67,246.297 4878.67,197.859 C4878.67,147.938 4892.61,122.25 4920.14,122.25 M5084.33,111.969 L5019.36,116.016 L5019.36,131.797 L5034.41,131.797 C5048.36,132.156 5050.19,134.359 5050.19,150.141 L5050.19,255.109 C5049.83,260.609 5049.45,262.813 5047.98,264.656 C5045.42,267.953 5038.08,269.422 5022.3,269.781 L5020.83,269.781 L5020.83,283 L5118.83,283 L5118.83,269.781 L5112.22,269.781 C5087.63,269.047 5084.33,267.219 5084.33,254 L5084.33,234.188 C5084.69,172.531 5106.7,125.563 5135.34,124.094 C5130.2,129.953 5128.73,133.625 5128.73,140.609 C5128.73,152.344 5137.17,160.781 5148.92,160.781 C5162.5,160.781 5171.3,150.875 5171.3,136.203 C5171.3,118.219 5158.83,106.469 5139.38,106.469 C5116.25,106.469 5096.44,124.828 5084.33,157.484 L5084.33,111.969 M5240.02,20.5938 C5228.27,20.5938 5218.72,30.1406 5218.72,41.875 C5218.72,53.625 5228.27,63.1719 5239.64,63.1719 C5251.75,63.1719 5261.3,53.625 5261.3,41.875 C5261.3,30.1406 5251.75,20.5938 5240.02,20.5938 M5257.27,111.969 L5188.27,116.016 L5188.27,131.797 L5206.98,131.797 C5220.92,132.156 5222.77,134.359 5222.77,150.141 L5222.77,255.109 C5222.39,260.609 5222.03,262.813 5220.56,264.656 C5217.98,267.953 5211.02,269.422 5195.23,269.781 L5192.67,269.781 L5192.67,283 L5287.72,283 L5287.72,269.781 L5285.16,269.781 C5260.56,269.047 5257.27,267.219 5257.27,254 L5257.27,111.969 M5463.55,164.828 C5463.55,141.703 5459.5,129.953 5448.86,121.156 C5436.75,111.234 5418.77,106.469 5395.28,106.469 C5353.81,106.469 5323.72,125.922 5323.72,152.719 C5323.72,166.297 5332.16,175.094 5345,175.094 C5356.75,175.094 5364.81,167.391 5364.81,156.391 C5364.81,151.609 5362.98,146.469 5359.31,141.344 C5357.11,138.766 5356.75,138.031 5356.75,136.203 C5356.75,128.859 5371.42,122.25 5389.05,122.25 C5400.78,122.25 5413.63,125.922 5419.5,131.422 C5426.47,137.297 5429.05,146.109 5429.05,162.625 L5429.05,176.938 C5390.88,183.547 5378.77,186.484 5360.78,193.453 C5328.86,205.188 5313.8,222.078 5313.8,245.563 C5313.8,271.984 5334.36,288.5 5367.02,288.5 C5392.34,288.5 5415.09,278.234 5430.88,259.516 C5436.75,278.234 5445.92,285.563 5463.17,285.563 C5479.69,285.563 5496.94,274.922 5496.94,264.281 C5496.94,261.719 5495.47,259.875 5493.27,259.875 C5491.8,259.875 5490.33,260.25 5487.77,261.344 C5482.63,263.547 5480.42,263.922 5477.48,263.922 C5467.22,263.922 5463.55,257.313 5463.55,238.594 L5463.55,164.828 M5429.05,209.594 C5429.05,231.625 5427.94,236.75 5421.7,246.297 C5412.53,259.875 5396.02,269.047 5379.86,269.047 C5362.98,269.047 5350.88,256.938 5350.88,240.422 C5350.88,225.016 5358.58,214 5374.73,206.297 C5386.11,201.156 5400.42,197.484 5429.05,192.719 L5429.05,209.594 "/>
<path class="MeasureNumber" d="M185.015,3106.95 C187.281,3095.25 189.937,3087.92 194.984,3079.02 C200.968,3068.52 208.156,3063.19 216.14,3063.19 C220.25,3063.19 222.781,3064.78 222.781,3067.31 C222.781,3068.25 222.515,3068.78 221.593,3070.5 C220.39,3072.77 219.859,3074.36 219.859,3076.36 C219.859,3080.61 223.046,3083.55 227.578,3083.55 C233.031,3083.55 236.75,3079.55 236.75,3073.56 C236.75,3064.52 228.234,3057.88 216.406,3057.88 C186.75,3057.88 168.781,3096.58 168.781,3122.11 C168.781,3141.66 178.5,3153.5 194.718,3153.5 C214.671,3153.5 229.437,3137 229.437,3117.45 C229.437,3103.89 220.25,3094.44 206.953,3094.44 C197.64,3094.44 190.468,3098.44 185.015,3106.95 M202.703,3102.16 C210.953,3102.16 215.468,3107.88 215.468,3118.25 C215.468,3135.14 206.562,3148.05 194.718,3148.05 C186.203,3148.05 181.156,3141.8 181.156,3131.16 C181.156,3114.53 190.328,3102.16 202.703,3102.16"/>
<path class="InstrumentName" d="M12.1094,3374.09 L12.1094,3380.53 L14.5781,3380.53 C22.3906,3380.67 24.9844,3381.08 26.0781,3382.45 C26.9062,3383.69 26.9062,3383.95 26.9062,3390.94 L26.9062,3456.16 C26.9062,3463.14 26.9062,3463.41 26.0781,3464.64 C24.9844,3466.02 22.3906,3466.56 14.5781,3466.56 L12.1094,3466.56 L12.1094,3473 L61.8437,3473 C85.5312,3473 99.7812,3463 99.7812,3446.16 C99.7812,3432.45 91.1562,3424.64 72.3906,3421.36 C78.9687,3419.98 81.9687,3418.75 85.5312,3416.14 C91.1562,3411.91 94.5781,3405.19 94.5781,3398.34 C94.5781,3389.44 89.0937,3380.8 81.1562,3377.38 C76.2187,3375.19 69.375,3374.09 61.2969,3374.09 L12.1094,3374.09 M42.25,3418.61 L42.25,3387.38 C42.25,3382.03 44.0312,3380.67 51.2969,3380.53 L56.7656,3380.53 C70.1875,3380.53 78.6875,3384.91 78.6875,3399.84 C78.6875,3413.41 72.1094,3418.61 54.4375,3418.61 L42.25,3418.61 M42.25,3425.05 L54.2969,3425.05 C75.2656,3425.05 82.9375,3430.67 82.9375,3445.73 C82.9375,3464.09 71.4219,3466.56 55.9531,3466.56 L50.1875,3466.56 C43.3437,3466.56 41.9687,3465.19 42.25,3457.94 L42.25,3425.05 "/>
<path class="InstrumentName" d="M12.1094,1502.6 L12.1094,1509.04 L14.5781,1509.04 C22.3906,1509.18 24.9844,1509.59 26.0781,1510.96 C26.9062,1512.2 26.9062,1512.46 26.9062,1519.45 L26.9062,1584.67 C26.9062,1591.65 26.9062,1591.92 26.0781,1593.15 C24.9844,1594.53 22.3906,1595.07 14.5781,1595.07 L12.1094,1595.07 L12.1094,1601.51 L61.8437,1601.51 C85.5312,1601.51 99.7812,1591.51 99.7812,1574.67 C99.7812,1560.96 91.1562,1553.15 72.3906,1549.87 C78.9687,1548.5 81.9687,1547.26 85.5312,1544.65 C91.1562,1540.42 94.5781,1533.7 94.5781,1526.85 C94.5781,1517.95 89.0937,1509.31 81.1562,1505.89 C76.2187,1503.7 69.375,1502.6 61.2969,1502.6 L12.1094,1502.6 M42.25,1547.12 L42.25,1515.89 C42.25,1510.54 44.0312,1509.18 51.2969,1509.04 L56.7656,1509.04 C70.1875,1509.04 78.6875,1513.42 78.6875,1528.35 C78.6875,1541.92 72.1094,1547.12 54.4375,1547.12 L42.25,1547.12 M42.25,1553.56 L54.2969,1553.56 C75.2656,1553.56 82.9375,1559.18 82.9375,1574.25 C82.9375,1592.6 71.4219,1595.07 55.9531,1595.07 L50.1875,1595.07 C43.3437,1595.07 41.9687,1593.7 42.25,1586.45 L42.25,1553.56 M168.922,1557.4 C168.922,1548.76 167.422,1544.39 163.437,1541.09 C158.922,1537.4 152.203,1535.62 143.437,1535.62 C127.953,1535.62 116.719,1542.87 116.719,1552.89 C116.719,1557.95 119.875,1561.23 124.672,1561.23 C129.062,1561.23 132.062,1558.35 132.062,1554.25 C132.062,1552.46 131.391,1550.54 130.016,1548.64 C129.187,1547.67 129.062,1547.4 129.062,1546.71 C129.062,1543.98 134.531,1541.51 141.109,1541.51 C145.5,1541.51 150.297,1542.87 152.484,1544.93 C155.078,1547.12 156.047,1550.42 156.047,1556.57 L156.047,1561.92 C141.797,1564.39 137.281,1565.48 130.562,1568.09 C118.641,1572.46 113.031,1578.78 113.031,1587.54 C113.031,1597.4 120.703,1603.57 132.891,1603.57 C142.344,1603.57 150.844,1599.73 156.734,1592.75 C158.922,1599.73 162.344,1602.46 168.781,1602.46 C174.953,1602.46 181.391,1598.5 181.391,1594.53 C181.391,1593.56 180.844,1592.89 180.016,1592.89 C179.469,1592.89 178.922,1593.01 177.969,1593.43 C176.047,1594.25 175.219,1594.39 174.125,1594.39 C170.297,1594.39 168.922,1591.92 168.922,1584.93 L168.922,1557.4 M156.047,1574.1 C156.047,1582.34 155.625,1584.25 153.297,1587.81 C149.875,1592.89 143.719,1596.31 137.687,1596.31 C131.391,1596.31 126.859,1591.79 126.859,1585.62 C126.859,1579.87 129.734,1575.76 135.766,1572.89 C140.016,1570.96 145.359,1569.59 156.047,1567.81 L156.047,1574.1 M236.422,1536.17 L231.625,1536.17 L227.656,1541.09 C222.734,1537.26 217.797,1535.62 210.953,1535.62 C198.891,1535.62 190.953,1543.43 190.953,1555.48 C190.953,1568.35 199.297,1571.65 210.266,1574.25 L217.516,1575.89 C228.344,1578.5 232.187,1581.23 232.187,1586.71 C232.187,1593.15 226.562,1597.68 218.625,1597.68 C206.969,1597.68 198.75,1590.28 195.469,1576.57 L189.984,1576.57 L189.984,1602.46 L194.781,1602.46 L199.578,1596.85 C205.187,1601.37 211.359,1603.57 218.344,1603.57 C231.766,1603.57 240.672,1595.21 240.672,1582.46 C240.672,1576.45 238.75,1571.78 234.922,1568.64 C231.625,1565.76 228.891,1564.67 220.531,1562.89 L213.687,1561.37 C206.156,1559.73 206.156,1559.73 203.687,1558.35 C200.672,1557 198.891,1554.1 198.891,1551.1 C198.891,1545.48 204.094,1541.65 211.625,1541.65 C222.859,1541.65 228.344,1549.59 231.625,1559.18 L236.422,1559.18 L236.422,1536.17 M298.422,1536.17 L293.625,1536.17 L289.656,1541.09 C284.734,1537.26 279.797,1535.62 272.953,1535.62 C260.891,1535.62 252.953,1543.43 252.953,1555.48 C252.953,1568.35 261.297,1571.65 272.266,1574.25 L279.516,1575.89 C290.344,1578.5 294.187,1581.23 294.187,1586.71 C294.187,1593.15 288.562,1597.68 280.625,1597.68 C268.969,1597.68 260.75,1590.28 257.469,1576.57 L251.984,1576.57 L251.984,1602.46 L256.781,1602.46 L261.578,1596.85 C267.187,1601.37 273.359,1603.57 280.344,1603.57 C293.766,1603.57 302.672,1595.21 302.672,1582.46 C302.672,1576.45 300.75,1571.78 296.922,1568.64 C293.625,1565.76 290.891,1564.67 282.531,1562.89 L275.687,1561.37 C268.156,1559.73 268.156,1559.73 265.687,1558.35 C262.672,1557 260.891,1554.1 260.891,1551.1 C260.891,1545.48 266.094,1541.65 273.625,1541.65 C284.859,1541.65 290.344,1549.59 293.625,1559.18 L298.422,1559.18 L298.422,1536.17 M342.516,1535.62 C325.672,1535.62 312.656,1550.54 312.656,1569.73 C312.656,1588.5 325.812,1603.57 342.25,1603.57 C358.687,1603.57 371.844,1588.5 371.844,1569.59 C371.844,1550.82 358.687,1535.62 342.516,1535.62 M342.516,1541.51 C352.109,1541.51 357.453,1551.51 357.453,1569.59 C357.453,1587.81 352.109,1597.68 342.25,1597.68 C332.391,1597.68 327.047,1587.81 327.047,1569.73 C327.047,1551.1 332.25,1541.51 342.516,1541.51"/>
<polyline class="BarLine" fill="none" stroke="#000000" stroke-width="12.24" stroke-linejoin="bevel" points="3640.17,3283.76 3640.17,3563.24" />
<polyline class="BarLine" fill="none" stroke="#000000" stroke-width="12.24" stroke-linejoin="bevel" points="8259.61,1413.77 8259.61,1693.25" />
<polyline class="BarLine" fill="none" stroke="#000000" stroke-width="12.24" stroke-linejoin="bevel" points="6841.14,1413.77 6841.14,1693.25" />
<polyline class="BarLine" fill="none" stroke="#000000" stroke-width="12.24" stroke-linejoin="bevel" points="2827.88,1413.77 2827.88,1693.25" />
<polyline class="BarLine" fill="none" stroke="#000000" stroke-width="12.24" stroke-linejoin="bevel" points="5041.04,1413.77 5041.04,1693.25" />
<polyline class="BarLine" fill="none" stroke="#000000" stroke-width="12.24" stroke-linejoin="bevel" points="9920.22,1413.77 9920.22,1693.25" />
<polyline class="BarLine" fill="none" stroke="#000000" stroke-width="12.24" stroke-linejoin="bevel" points="9920.22,3283.76 9920.22,3563.24" />
<polyline class="BarLine" fill="none" stroke="#000000" stroke-width="12.24" stroke-linejoin="bevel" points="5899.42,3283.76 5899.42,3563.24" />
<polyline class="BarLine" fill="none" stroke="#000000" stroke-width="12.24" stroke-linejoin="bevel" points="8158.66,3283.76 8158.66,3563.24" />
<path class="SlurSegment" stroke="#000000" stroke-width="3.40" stroke-linecap="round" stroke-linejoin="round" fill-rule="evenodd" d="M4036.87,1637.15 C4109.11,1718.84 4279.42,1752.84 4377.49,1705.15 C4275.16,1774.17 4104.85,1740.17 4036.87,1637.15"/>
<path class="Accidental" transform="matrix(0.822471,0,0,0.822471,614.648,3389.5)" d="M43.6875,-13.2344 C43.6875,12.9063 30.125,26.8125 10.9219,42.0313 L11.9219,-22.5 C12.5781,-25.4844 17.5469,-35.0781 30.7813,-35.0781 C42.7031,-35.0781 43.6875,-23.8281 43.6875,-16.875 L43.6875,-13.2344 M39.7188,-51.2969 C23.1719,-51.2969 13.5781,-41.0469 11.9219,-39.0625 L13.2344,-145.313 C13.2344,-147.953 11.25,-149.938 8.60938,-149.938 L4.64063,-149.938 C1.98438,-149.938 0,-147.953 0,-145.313 L1.65625,53.625 C1.65625,56.2656 3.64063,58.25 6.28125,58.25 C6.95313,58.25 8.28125,57.9219 8.9375,57.5938 C37.4063,43.3594 67.1875,16.2188 67.1875,-17.875 C67.1875,-35.0781 59.25,-51.2969 39.7188,-51.2969"/>
<path class="Accidental" transform="matrix(0.822471,0,0,0.822471,2878.2,1519.51)" d="M43.6875,-13.2344 C43.6875,12.9063 30.125,26.8125 10.9219,42.0313 L11.9219,-22.5 C12.5781,-25.4844 17.5469,-35.0781 30.7813,-35.0781 C42.7031,-35.0781 43.6875,-23.8281 43.6875,-16.875 L43.6875,-13.2344 M39.7188,-51.2969 C23.1719,-51.2969 13.5781,-41.0469 11.9219,-39.0625 L13.2344,-145.313 C13.2344,-147.953 11.25,-149.938 8.60938,-149.938 L4.64063,-149.938 C1.98438,-149.938 0,-147.953 0,-145.313 L1.65625,53.625 C1.65625,56.2656 3.64063,58.25 6.28125,58.25 C6.95313,58.25 8.28125,57.9219 8.9375,57.5938 C37.4063,43.3594 67.1875,16.2188 67.1875,-17.875 C67.1875,-35.0781 59.25,-51.2969 39.7188,-51.2969"/>
<polyline class="Stem" fill="none" stroke="#000000" stroke-width="6.80" stroke-linejoin="bevel" points="1181.47,3366.92 1181.47,3576.5" />
<polyline class="Stem" fill="none" stroke="#000000" stroke-width="6.80" stroke-linejoin="bevel" points="3301.24,1496.94 3301.24,1706.51" />
<polyline class="Stem" fill="none" stroke="#000000" stroke-width="6.80" stroke-linejoin="bevel" points="7677.87,1576.63 7677.87,1366.51" />
<polyline class="Stem" fill="none" stroke="#000000" stroke-width="6.80" stroke-linejoin="bevel" points="690.27,3400.92 690.27,3576.5" />
<polyline class="Stem" fill="none" stroke="#000000" stroke-width="6.80" stroke-linejoin="bevel" points="3648.65,1530.94 3648.65,1706.51" />
<polyline class="Stem" fill="none" stroke="#000000" stroke-width="6.80" stroke-linejoin="bevel" points="4077.67,1542.63 4077.67,1366.59" />
<polyline class="Stem" fill="none" stroke="#000000" stroke-width="6.80" stroke-linejoin="bevel" points="3816.29,3514.62 3816.29,3287.5" />
<polyline class="Stem" fill="none" stroke="#000000" stroke-width="6.80" stroke-linejoin="bevel" points="3227.85,3480.62 3227.85,3253.44" />
<polyline class="Stem" fill="none" stroke="#000000" stroke-width="6.80" stroke-linejoin="bevel" points="4425.08,1576.63 4425.08,1375.01" />
<polyline class="Stem" fill="none" stroke="#000000" stroke-width="6.80" stroke-linejoin="bevel" points="7017.26,1576.63 7017.26,1366.51" />
<polyline class="Stem" fill="none" stroke="#000000" stroke-width="6.80" stroke-linejoin="bevel" points="4772.5,1610.63 4772.5,1383.43" />
<polyline class="Stem" fill="none" stroke="#000000" stroke-width="6.80" stroke-linejoin="bevel" points="1088.08,1496.94 1088.08,1723.51" />
<polyline class="Stem" fill="none" stroke="#000000" stroke-width="6.80" stroke-linejoin="bevel" points="8875.25,1496.94 8875.25,1723.51" />
<polyline class="Stem" fill="none" stroke="#000000" stroke-width="6.80" stroke-linejoin="bevel" points="2736.66,3446.62 2736.66,3245" />
<polyline class="Stem" fill="none" stroke="#000000" stroke-width="6.80" stroke-linejoin="bevel" points="5135.56,1496.94 5135.56,1723.51" />
<polyline class="Stem" fill="none" stroke="#000000" stroke-width="6.80" stroke-linejoin="bevel" points="8354.13,1496.94 8354.13,1723.51" />
<polyline class="Stem" fill="none" stroke="#000000" stroke-width="6.80" stroke-linejoin="bevel" points="2245.46,3412.62 2245.46,3236.56" />
<polyline class="Stem" fill="none" stroke="#000000" stroke-width="6.80" stroke-linejoin="bevel" points="9396.38,1530.94 9396.38,1740.51" />
<polyline class="Stem" fill="none" stroke="#000000" stroke-width="6.80" stroke-linejoin="bevel" points="1609.2,1496.94 1609.2,1723.24" />
<polyline class="Stem" fill="none" stroke="#000000" stroke-width="6.80" stroke-linejoin="bevel" points="6225.19,1610.63 6225.19,1417.51" />
<polyline class="Stem" fill="none" stroke="#000000" stroke-width="6.80" stroke-linejoin="bevel" points="4668.71,3434.92 4668.71,3627.5" />
<polyline class="Stem" fill="none" stroke="#000000" stroke-width="6.80" stroke-linejoin="bevel" points="5487.1,3480.62 5487.1,3254.05" />
<polyline class="Stem" fill="none" stroke="#000000" stroke-width="6.80" stroke-linejoin="bevel" points="1956.62,1530.94 1956.62,1740.51" />
<polyline class="Stem" fill="none" stroke="#000000" stroke-width="6.80" stroke-linejoin="bevel" points="1672.66,3400.92 1672.66,3576.5" />
<polyline class="Stem" fill="none" stroke="#000000" stroke-width="6.80" stroke-linejoin="bevel" points="5877.77,1610.63 5877.77,1417.51" />
<polyline class="Stem" fill="none" stroke="#000000" stroke-width="6.80" stroke-linejoin="bevel" points="6812.33,3446.62 6812.33,3237.05" />
<polyline class="Stem" fill="none" stroke="#000000" stroke-width="6.80" stroke-linejoin="bevel" points="7221.93,3366.92 7221.93,3593.5" />
<polyline class="Stem" fill="none" stroke="#000000" stroke-width="6.80" stroke-linejoin="bevel" points="2477.74,1530.94 2477.74,1740.24" />
<polyline class="Stem" fill="none" stroke="#000000" stroke-width="6.80" stroke-linejoin="bevel" points="2953.82,1530.94 2953.82,1706.51" />
<polyline class="Stem" fill="none" stroke="#000000" stroke-width="6.80" stroke-linejoin="bevel" points="6572.6,1610.63 6572.6,1417.51" />
<polyline class="Stem" fill="none" stroke="#000000" stroke-width="6.80" stroke-linejoin="bevel" points="6075.54,3446.62 6075.54,3236.5" />
<path class="Hook" transform="matrix(0.822471,0,0,0.822471,1605.8,1723.51)" d="M0,-0.328125 C0,1.98438 1.98438,3.96875 4.29688,3.96875 C5.95313,3.96875 7.9375,2.64063 8.28125,1.32813 C8.28125,1 11.25,-10.5938 11.5781,-11.5781 C11.9219,-12.9063 14.8906,-25.4844 26.8125,-45.0156 C39.7188,-66.5313 59.5781,-82.0938 76.125,-105.25 C92.3438,-128.422 102.281,-150.266 102.281,-179.406 C102.281,-209.516 95.3281,-234.672 77.7813,-266.781 C76.7969,-269.094 74.7969,-270.422 72.8125,-270.422 C72.1563,-270.422 71.5,-270.422 71.1563,-270.094 C69.5156,-269.422 68.8438,-268.109 68.8438,-266.125 C68.8438,-265.125 69.1719,-263.469 69.8438,-262.141 C83.0781,-231.359 88.375,-213.828 88.375,-189.984 C88.375,-162.516 78.7813,-148.281 72.8125,-138.031 C51.2969,-101.281 16.5469,-83.4063 2.64063,-78.7813 C0.328125,-77.7813 0,-76.125 0,-75.1406 L0,-0.328125 "/>
<path class="Hook" transform="matrix(0.822471,0,0,0.822471,6808.93,3236.5)" d="M0,75.1406 C0,76.125 0.328125,77.7813 2.64063,78.7813 C16.875,83.4063 45.3438,101.281 66.8594,138.031 C72.8125,148.281 82.4219,162.516 82.4219,189.984 C82.4219,213.828 76.125,238.313 67.5156,262.141 C66.8594,264.141 66.2031,265.781 66.5313,267.109 C66.5313,269.094 67.8594,270.422 69.8438,270.422 C72.1563,270.422 73.8125,269.094 75.1406,266.781 C90.0313,240.297 95.6563,209.516 95.6563,179.406 C94,136.703 69.5156,105.25 69.5156,105.25 C70.5,105.25 39.0625,64.5469 30.125,50.6406 C17.875,31.7813 12.25,12.9063 11.5781,11.5781 C11.25,10.5938 8.28125,-1.32813 8.28125,-1.32813 C7.9375,-2.64063 6.28125,-3.96875 4.29688,-3.96875 C1.98438,-3.96875 0,-1.98438 0,0.328125 L0,75.1406 "/>
<path class="Hook" transform="matrix(0.822471,0,0,0.822471,2474.34,1740.51)" d="M0,-0.328125 C0,1.98438 1.98438,3.96875 4.29688,3.96875 C5.95313,3.96875 7.9375,2.64063 8.28125,1.32813 C8.28125,1 11.25,-10.5938 11.5781,-11.5781 C11.9219,-12.9063 14.8906,-25.4844 26.8125,-45.0156 C39.7188,-66.5313 59.5781,-82.0938 76.125,-105.25 C92.3438,-128.422 102.281,-150.266 102.281,-179.406 C102.281,-209.516 95.3281,-234.672 77.7813,-266.781 C76.7969,-269.094 74.7969,-270.422 72.8125,-270.422 C72.1563,-270.422 71.5,-270.422 71.1563,-270.094 C69.5156,-269.422 68.8438,-268.109 68.8438,-266.125 C68.8438,-265.125 69.1719,-263.469 69.8438,-262.141 C83.0781,-231.359 88.375,-213.828 88.375,-189.984 C88.375,-162.516 78.7813,-148.281 72.8125,-138.031 C51.2969,-101.281 16.5469,-83.4063 2.64063,-78.7813 C0.328125,-77.7813 0,-76.125 0,-75.1406 L0,-0.328125 "/>
<path class="Hook" transform="matrix(0.822471,0,0,0.822471,5483.7,3253.5)" d="M0,75.1406 C0,76.125 0.328125,77.7813 2.64063,78.7813 C16.875,83.4063 45.3438,101.281 66.8594,138.031 C72.8125,148.281 82.4219,162.516 82.4219,189.984 C82.4219,213.828 76.125,238.313 67.5156,262.141 C66.8594,264.141 66.2031,265.781 66.5313,267.109 C66.5313,269.094 67.8594,270.422 69.8438,270.422 C72.1563,270.422 73.8125,269.094 75.1406,266.781 C90.0313,240.297 95.6563,209.516 95.6563,179.406 C94,136.703 69.5156,105.25 69.5156,105.25 C70.5,105.25 39.0625,64.5469 30.125,50.6406 C17.875,31.7813 12.25,12.9063 11.5781,11.5781 C11.25,10.5938 8.28125,-1.32813 8.28125,-1.32813 C7.9375,-2.64063 6.28125,-3.96875 4.29688,-3.96875 C1.98438,-3.96875 0,-1.98438 0,0.328125 L0,75.1406 "/>
<path class="Note" transform="matrix(0.822471,0,0,0.822471,7592.87,1587.51)" d="M0,13.9063 C0,28.1406 10.2656,44.0156 37.0781,44.0156 C71.5,44.0156 107.578,15.8906 107.578,-13.2344 C107.578,-32.7656 91.0156,-43.6875 70.5,-43.6875 C38.3906,-43.6875 0,-16.5469 0,13.9063"/>
<path class="Note" transform="matrix(0.822471,0,0,0.822471,1953.22,1519.51)" d="M0,13.9063 C0,28.1406 10.2656,44.0156 37.0781,44.0156 C71.5,44.0156 107.578,15.8906 107.578,-13.2344 C107.578,-32.7656 91.0156,-43.6875 70.5,-43.6875 C38.3906,-43.6875 0,-16.5469 0,13.9063"/>
<path class="Note" transform="matrix(0.822471,0,0,0.822471,8350.73,1485.51)" d="M0,13.9063 C0,28.1406 10.2656,44.0156 37.0781,44.0156 C71.5,44.0156 107.578,15.8906 107.578,-13.2344 C107.578,-32.7656 91.0156,-43.6875 70.5,-43.6875 C38.3906,-43.6875 0,-16.5469 0,13.9063"/>
<path class="Note" transform="matrix(0.822471,0,0,0.822471,8871.85,1485.51)" d="M0,13.9063 C0,28.1406 10.2656,44.0156 37.0781,44.0156 C71.5,44.0156 107.578,15.8906 107.578,-13.2344 C107.578,-32.7656 91.0156,-43.6875 70.5,-43.6875 C38.3906,-43.6875 0,-16.5469 0,13.9063"/>
<path class="Note" transform="matrix(0.822471,0,0,0.822471,9392.98,1519.51)" d="M0,13.9063 C0,28.1406 10.2656,44.0156 37.0781,44.0156 C71.5,44.0156 107.578,15.8906 107.578,-13.2344 C107.578,-32.7656 91.0156,-43.6875 70.5,-43.6875 C38.3906,-43.6875 0,-16.5469 0,13.9063"/>
<path class="Note" transform="matrix(0.822471,0,0,0.822471,5792.77,1621.51)" d="M0,13.9063 C0,28.1406 10.2656,44.0156 37.0781,44.0156 C71.5,44.0156 107.578,15.8906 107.578,-13.2344 C107.578,-32.7656 91.0156,-43.6875 70.5,-43.6875 C38.3906,-43.6875 0,-16.5469 0,13.9063"/>
<path class="Note" transform="matrix(0.822471,0,0,0.822471,686.87,3389.5)" d="M0,13.9063 C0,28.1406 10.2656,44.0156 37.0781,44.0156 C71.5,44.0156 107.578,15.8906 107.578,-13.2344 C107.578,-32.7656 91.0156,-43.6875 70.5,-43.6875 C38.3906,-43.6875 0,-16.5469 0,13.9063"/>
<path class="Note" transform="matrix(0.822471,0,0,0.822471,1178.07,3355.5)" d="M0,13.9063 C0,28.1406 10.2656,44.0156 37.0781,44.0156 C71.5,44.0156 107.578,15.8906 107.578,-13.2344 C107.578,-32.7656 91.0156,-43.6875 70.5,-43.6875 C38.3906,-43.6875 0,-16.5469 0,13.9063"/>
<path class="Note" transform="matrix(0.822471,0,0,0.822471,1669.26,3389.5)" d="M0,13.9063 C0,28.1406 10.2656,44.0156 37.0781,44.0156 C71.5,44.0156 107.578,15.8906 107.578,-13.2344 C107.578,-32.7656 91.0156,-43.6875 70.5,-43.6875 C38.3906,-43.6875 0,-16.5469 0,13.9063"/>
<path class="Note" transform="matrix(0.822471,0,0,0.822471,2160.46,3423.5)" d="M0,13.9063 C0,28.1406 10.2656,44.0156 37.0781,44.0156 C71.5,44.0156 107.578,15.8906 107.578,-13.2344 C107.578,-32.7656 91.0156,-43.6875 70.5,-43.6875 C38.3906,-43.6875 0,-16.5469 0,13.9063"/>
<path class="Note" transform="matrix(0.822471,0,0,0.822471,3142.85,3491.5)" d="M0,13.9063 C0,28.1406 10.2656,44.0156 37.0781,44.0156 C71.5,44.0156 107.578,15.8906 107.578,-13.2344 C107.578,-32.7656 91.0156,-43.6875 70.5,-43.6875 C38.3906,-43.6875 0,-16.5469 0,13.9063"/>
<path class="Note" transform="matrix(0.822471,0,0,0.822471,3731.29,3525.5)" d="M0,13.9063 C0,28.1406 10.2656,44.0156 37.0781,44.0156 C71.5,44.0156 107.578,15.8906 107.578,-13.2344 C107.578,-32.7656 91.0156,-43.6875 70.5,-43.6875 C38.3906,-43.6875 0,-16.5469 0,13.9063"/>
<path class="Note" transform="matrix(0.822471,0,0,0.822471,1084.68,1485.51)" d="M0,13.9063 C0,28.1406 10.2656,44.0156 37.0781,44.0156 C71.5,44.0156 107.578,15.8906 107.578,-13.2344 C107.578,-32.7656 91.0156,-43.6875 70.5,-43.6875 C38.3906,-43.6875 0,-16.5469 0,13.9063"/>
<path class="Note" transform="matrix(0.822471,0,0,0.822471,4665.31,3423.5)" d="M0,13.9063 C0,28.1406 10.2656,44.0156 37.0781,44.0156 C71.5,44.0156 107.578,15.8906 107.578,-13.2344 C107.578,-32.7656 91.0156,-43.6875 70.5,-43.6875 C38.3906,-43.6875 0,-16.5469 0,13.9063"/>
<path class="Note" transform="matrix(0.822471,0,0,0.822471,1605.8,1485.51)" d="M0,13.9063 C0,28.1406 10.2656,44.0156 37.0781,44.0156 C71.5,44.0156 107.578,15.8906 107.578,-13.2344 C107.578,-32.7656 91.0156,-43.6875 70.5,-43.6875 C38.3906,-43.6875 0,-16.5469 0,13.9063"/>
<path class="Note" transform="matrix(0.822471,0,0,0.822471,2474.34,1519.51)" d="M0,13.9063 C0,28.1406 10.2656,44.0156 37.0781,44.0156 C71.5,44.0156 107.578,15.8906 107.578,-13.2344 C107.578,-32.7656 91.0156,-43.6875 70.5,-43.6875 C38.3906,-43.6875 0,-16.5469 0,13.9063"/>
<path class="Note" transform="matrix(0.822471,0,0,0.822471,5402.1,3491.5)" d="M0,13.9063 C0,28.1406 10.2656,44.0156 37.0781,44.0156 C71.5,44.0156 107.578,15.8906 107.578,-13.2344 C107.578,-32.7656 91.0156,-43.6875 70.5,-43.6875 C38.3906,-43.6875 0,-16.5469 0,13.9063"/>
<path class="Note" transform="matrix(0.822471,0,0,0.822471,2950.42,1519.51)" d="M0,13.9063 C0,28.1406 10.2656,44.0156 37.0781,44.0156 C71.5,44.0156 107.578,15.8906 107.578,-13.2344 C107.578,-32.7656 91.0156,-43.6875 70.5,-43.6875 C38.3906,-43.6875 0,-16.5469 0,13.9063"/>
<path class="Note" transform="matrix(0.822471,0,0,0.822471,3297.84,1485.51)" d="M0,13.9063 C0,28.1406 10.2656,44.0156 37.0781,44.0156 C71.5,44.0156 107.578,15.8906 107.578,-13.2344 C107.578,-32.7656 91.0156,-43.6875 70.5,-43.6875 C38.3906,-43.6875 0,-16.5469 0,13.9063"/>
<path class="Note" transform="matrix(0.822471,0,0,0.822471,2651.66,3457.5)" d="M0,13.9063 C0,28.1406 10.2656,44.0156 37.0781,44.0156 C71.5,44.0156 107.578,15.8906 107.578,-13.2344 C107.578,-32.7656 91.0156,-43.6875 70.5,-43.6875 C38.3906,-43.6875 0,-16.5469 0,13.9063"/>
<path class="Note" transform="matrix(0.822471,0,0,0.822471,3645.25,1519.51)" d="M0,13.9063 C0,28.1406 10.2656,44.0156 37.0781,44.0156 C71.5,44.0156 107.578,15.8906 107.578,-13.2344 C107.578,-32.7656 91.0156,-43.6875 70.5,-43.6875 C38.3906,-43.6875 0,-16.5469 0,13.9063"/>
<path class="Note" transform="matrix(0.822471,0,0,0.822471,5990.54,3457.5)" d="M0,13.9063 C0,28.1406 10.2656,44.0156 37.0781,44.0156 C71.5,44.0156 107.578,15.8906 107.578,-13.2344 C107.578,-32.7656 91.0156,-43.6875 70.5,-43.6875 C38.3906,-43.6875 0,-16.5469 0,13.9063"/>
<path class="Note" transform="matrix(0.822471,0,0,0.822471,3992.67,1553.51)" d="M0,13.9063 C0,28.1406 10.2656,44.0156 37.0781,44.0156 C71.5,44.0156 107.578,15.8906 107.578,-13.2344 C107.578,-32.7656 91.0156,-43.6875 70.5,-43.6875 C38.3906,-43.6875 0,-16.5469 0,13.9063"/>
<path class="Note" transform="matrix(0.822471,0,0,0.822471,4340.08,1587.51)" d="M0,13.9063 C0,28.1406 10.2656,44.0156 37.0781,44.0156 C71.5,44.0156 107.578,15.8906 107.578,-13.2344 C107.578,-32.7656 91.0156,-43.6875 70.5,-43.6875 C38.3906,-43.6875 0,-16.5469 0,13.9063"/>
<path class="Note" transform="matrix(0.822471,0,0,0.822471,6727.33,3457.5)" d="M0,13.9063 C0,28.1406 10.2656,44.0156 37.0781,44.0156 C71.5,44.0156 107.578,15.8906 107.578,-13.2344 C107.578,-32.7656 91.0156,-43.6875 70.5,-43.6875 C38.3906,-43.6875 0,-16.5469 0,13.9063"/>
<path class="Note" transform="matrix(0.822471,0,0,0.822471,4687.5,1621.51)" d="M0,13.9063 C0,28.1406 10.2656,44.0156 37.0781,44.0156 C71.5,44.0156 107.578,15.8906 107.578,-13.2344 C107.578,-32.7656 91.0156,-43.6875 70.5,-43.6875 C38.3906,-43.6875 0,-16.5469 0,13.9063"/>
<path class="Note" transform="matrix(0.822471,0,0,0.822471,7218.53,3355.5)" d="M0,13.9063 C0,28.1406 10.2656,44.0156 37.0781,44.0156 C71.5,44.0156 107.578,15.8906 107.578,-13.2344 C107.578,-32.7656 91.0156,-43.6875 70.5,-43.6875 C38.3906,-43.6875 0,-16.5469 0,13.9063"/>
<path class="Note" transform="matrix(0.822471,0,0,0.822471,5132.16,1485.51)" d="M0,13.9063 C0,28.1406 10.2656,44.0156 37.0781,44.0156 C71.5,44.0156 107.578,15.8906 107.578,-13.2344 C107.578,-32.7656 91.0156,-43.6875 70.5,-43.6875 C38.3906,-43.6875 0,-16.5469 0,13.9063"/>
<path class="Note" transform="matrix(0.822471,0,0,0.822471,6140.19,1621.51)" d="M0,13.9063 C0,28.1406 10.2656,44.0156 37.0781,44.0156 C71.5,44.0156 107.578,15.8906 107.578,-13.2344 C107.578,-32.7656 91.0156,-43.6875 70.5,-43.6875 C38.3906,-43.6875 0,-16.5469 0,13.9063"/>
<path class="Note" transform="matrix(0.822471,0,0,0.822471,6487.6,1621.51)" d="M0,13.9063 C0,28.1406 10.2656,44.0156 37.0781,44.0156 C71.5,44.0156 107.578,15.8906 107.578,-13.2344 C107.578,-32.7656 91.0156,-43.6875 70.5,-43.6875 C38.3906,-43.6875 0,-16.5469 0,13.9063"/>
<path class="Note" transform="matrix(0.822471,0,0,0.822471,8249.78,3355.5)" d="M64.5469,33.7656 C55.2813,33.7656 48.9844,31.1094 44.6875,22.8438 C40.375,14.5625 34.4219,-6.625 34.0938,-15.5625 C33.4375,-24.5 36.7344,-29.7969 44.6875,-32.4375 C48.6563,-33.7656 53.9531,-34.4219 58.9219,-34.4219 C68.1875,-34.4219 74.1406,-32.4375 78.7813,-23.5 C83.4063,-14.5625 89.375,6.625 89.375,14.8906 C89.375,31.1094 78.1094,33.7656 64.5469,33.7656 M61.8906,-45.0156 C16.2188,-45.0156 0,-21.8438 0,-0.328125 C0,21.1875 16.2188,44.3594 61.8906,44.3594 C107.578,44.3594 123.453,21.1875 123.453,-0.328125 C123.453,-21.8438 107.578,-45.0156 61.8906,-45.0156"/>
<path class="Note" transform="matrix(0.822471,0,0,0.822471,6932.26,1587.51)" d="M0,13.9063 C0,28.1406 10.2656,44.0156 37.0781,44.0156 C71.5,44.0156 107.578,15.8906 107.578,-13.2344 C107.578,-32.7656 91.0156,-43.6875 70.5,-43.6875 C38.3906,-43.6875 0,-16.5469 0,13.9063"/>
<path class="Clef" transform="matrix(0.822471,0,0,0.822471,218.999,3355.5)" d="M188,-41.0469 C188,-31.7813 195.281,-24.5 203.891,-24.5 C212.5,-24.5 219.781,-31.7813 219.781,-41.0469 C219.781,-50.3125 212.5,-57.9219 203.891,-57.9219 C195.281,-57.9219 188,-50.3125 188,-41.0469 M84.0781,-83.0781 C58.9219,-83.0781 38.7188,-68.5156 38.3906,-68.5156 C18.8594,-54.2813 6.28125,-32.4375 6.28125,-8.28125 C6.28125,15.8906 20.1875,33.7656 44.6875,33.7656 C65.875,33.7656 82.4219,19.5313 82.4219,-2.3125 C82.4219,-21.1875 65.875,-36.7344 47.3281,-36.7344 C43.3594,-36.7344 39.7188,-36.0781 36.7344,-35.0781 C33.4375,-33.7656 27.7969,-30.4531 25.1563,-28.1406 C27.4688,-42.7031 37.4063,-57.2656 50.3125,-64.2188 C58.5781,-68.8438 69.1719,-70.8281 80.7656,-70.8281 C114.531,-70.8281 131.078,-43.6875 131.078,11.9219 C131.078,54.9375 103.594,116.844 71.1563,145.969 C36.7344,177.406 4.29688,192.313 3.96875,192.313 C3.96875,192.313 0,194.625 0,198.594 C0,199.266 0.328125,199.594 0.328125,200.25 C1.32813,203.563 4.29688,204.219 6.28125,204.219 C6.625,204.219 7.60938,203.891 7.9375,203.891 C8.28125,203.891 46.0156,188.328 76.125,164.828 C122.469,131.406 174.766,72.4844 174.766,11.5781 C174.766,-46.0156 143.656,-83.0781 84.0781,-83.0781 M188,40.7188 C188,49.9844 195.281,57.5938 203.891,57.5938 C212.5,57.5938 219.781,49.9844 219.781,40.7188 C219.781,31.4375 212.5,23.8281 203.891,23.8281 C195.281,23.8281 188,31.4375 188,40.7188"/>
<path class="Clef" transform="matrix(0.822471,0,0,0.822471,490.999,1485.51)" d="M188,-41.0469 C188,-31.7813 195.281,-24.5 203.891,-24.5 C212.5,-24.5 219.781,-31.7813 219.781,-41.0469 C219.781,-50.3125 212.5,-57.9219 203.891,-57.9219 C195.281,-57.9219 188,-50.3125 188,-41.0469 M84.0781,-83.0781 C58.9219,-83.0781 38.7188,-68.5156 38.3906,-68.5156 C18.8594,-54.2813 6.28125,-32.4375 6.28125,-8.28125 C6.28125,15.8906 20.1875,33.7656 44.6875,33.7656 C65.875,33.7656 82.4219,19.5313 82.4219,-2.3125 C82.4219,-21.1875 65.875,-36.7344 47.3281,-36.7344 C43.3594,-36.7344 39.7188,-36.0781 36.7344,-35.0781 C33.4375,-33.7656 27.7969,-30.4531 25.1563,-28.1406 C27.4688,-42.7031 37.4063,-57.2656 50.3125,-64.2188 C58.5781,-68.8438 69.1719,-70.8281 80.7656,-70.8281 C114.531,-70.8281 131.078,-43.6875 131.078,11.9219 C131.078,54.9375 103.594,116.844 71.1563,145.969 C36.7344,177.406 4.29688,192.313 3.96875,192.313 C3.96875,192.313 0,194.625 0,198.594 C0,199.266 0.328125,199.594 0.328125,200.25 C1.32813,203.563 4.29688,204.219 6.28125,204.219 C6.625,204.219 7.60938,203.891 7.9375,203.891 C8.28125,203.891 46.0156,188.328 76.125,164.828 C122.469,131.406 174.766,72.4844 174.766,11.5781 C174.766,-46.0156 143.656,-83.0781 84.0781,-83.0781 M188,40.7188 C188,49.9844 195.281,57.5938 203.891,57.5938 C212.5,57.5938 219.781,49.9844 219.781,40.7188 C219.781,31.4375 212.5,23.8281 203.891,23.8281 C195.281,23.8281 188,31.4375 188,40.7188"/>
<path class="KeySig" transform="matrix(0.822471,0,0,0.822471,722.628,1621.51)" d="M43.6875,-13.2344 C43.6875,12.9063 30.125,26.8125 10.9219,42.0313 L11.9219,-22.5 C12.5781,-25.4844 17.5469,-35.0781 30.7813,-35.0781 C42.7031,-35.0781 43.6875,-23.8281 43.6875,-16.875 L43.6875,-13.2344 M39.7188,-51.2969 C23.1719,-51.2969 13.5781,-41.0469 11.9219,-39.0625 L13.2344,-145.313 C13.2344,-147.953 11.25,-149.938 8.60938,-149.938 L4.64063,-149.938 C1.98438,-149.938 0,-147.953 0,-145.313 L1.65625,53.625 C1.65625,56.2656 3.64063,58.25 6.28125,58.25 C6.95313,58.25 8.28125,57.9219 8.9375,57.5938 C37.4063,43.3594 67.1875,16.2188 67.1875,-17.875 C67.1875,-35.0781 59.25,-51.2969 39.7188,-51.2969"/>
<path class="KeySig" transform="matrix(0.822471,0,0,0.822471,450.628,3491.5)" d="M43.6875,-13.2344 C43.6875,12.9063 30.125,26.8125 10.9219,42.0313 L11.9219,-22.5 C12.5781,-25.4844 17.5469,-35.0781 30.7813,-35.0781 C42.7031,-35.0781 43.6875,-23.8281 43.6875,-16.875 L43.6875,-13.2344 M39.7188,-51.2969 C23.1719,-51.2969 13.5781,-41.0469 11.9219,-39.0625 L13.2344,-145.313 C13.2344,-147.953 11.25,-149.938 8.60938,-149.938 L4.64063,-149.938 C1.98438,-149.938 0,-147.953 0,-145.313 L1.65625,53.625 C1.65625,56.2656 3.64063,58.25 6.28125,58.25 C6.95313,58.25 8.28125,57.9219 8.9375,57.5938 C37.4063,43.3594 67.1875,16.2188 67.1875,-17.875 C67.1875,-35.0781 59.25,-51.2969 39.7188,-51.2969"/>
<path class="TimeSig" transform="matrix(0.822471,0,0,0.822471,842.578,1487)" d="M69.5156,66.8594 C58.5781,66.8594 49.6563,51.9688 49.6563,33.4375 C49.6563,14.8906 58.5781,-0.328125 69.5156,-0.328125 C80.4375,-0.328125 89.7031,14.8906 89.7031,33.4375 C89.7031,51.9688 80.4375,66.8594 69.5156,66.8594 M81.75,-15.8906 C61.5625,-15.8906 54.2813,-9.9375 49.6563,-4.96875 C48.6563,-11.9219 48,-17.2188 48,-22.5 C48,-41.375 54.6094,-65.875 77.7813,-65.875 C86.0625,-65.875 91.0156,-63.2188 94.3281,-59.5781 C87.375,-56.5938 81.75,-47.6563 81.75,-40.0469 C81.75,-28.1406 91.0156,-18.8594 102.938,-18.8594 C114.859,-18.8594 124.453,-28.1406 124.453,-40.0469 L124.453,-41.0469 C124.453,-44.0156 123.797,-48.9844 122.469,-51.6406 C118.172,-63.5469 104.266,-81.0938 71.1563,-81.0938 C41.375,-81.0938 19.8594,-52.625 13.2344,-37.4063 C9.9375,-29.4531 4.96875,-13.2344 4.96875,5.29688 C4.96875,25.4844 10.5938,48.3281 30.125,65.5313 C49.3125,80.0938 61.5625,80.7656 73.1563,80.7656 C84.7344,80.7656 128.094,67.1875 128.094,28.7969 C128.094,-3.64063 102.609,-15.8906 81.75,-15.8906"/>
<path class="TimeSig" transform="matrix(0.822471,0,0,0.822471,841.769,1620.7)" d="M88.7031,-14.8906 C66.2031,-22.1719 41.375,-33.0938 41.375,-48 C41.375,-60.9063 53.2969,-66.2031 67.5156,-66.2031 C88.0469,-66.2031 101.953,-56.5938 101.953,-41.375 C101.953,-25.4844 94.6719,-17.875 88.7031,-14.8906 M67.5156,63.5469 C46.3438,63.5469 28.1406,51.9688 28.1406,33.4375 C28.1406,11.25 45.3438,5.95313 45.3438,5.95313 C67.8594,13.5781 99.9531,24.8281 99.9531,43.0313 C99.9531,51.9688 88.375,63.5469 67.5156,63.5469 M107.234,-5.95313 C118.172,-14.2344 125.781,-24.8281 125.781,-38.0625 C125.781,-61.8906 99.625,-81.4219 67.5156,-81.4219 C35.4219,-81.4219 9.26563,-61.8906 9.26563,-38.0625 C9.26563,-24.8281 12.5781,-12.9063 28.1406,-2.98438 C13.2344,5.625 4.96875,17.875 4.96875,33.7656 C4.96875,60.5781 33.0938,82.0938 67.5156,82.0938 C101.953,82.0938 130.078,60.5781 130.078,33.7656 C130.078,17.875 124.453,2.98438 107.234,-5.95313"/>
<path class="Articulation" transform="matrix(0.822471,0,0,0.822471,1618.93,1753.97)" d="M3.64063,22.1719 C6.28125,24.8281 9.59375,25.8125 12.9063,25.8125 C16.2188,25.8125 19.5313,24.8281 22.1719,22.1719 C27.1406,16.875 27.1406,8.9375 22.1719,3.96875 C19.5313,1.32813 16.2188,0 12.9063,0 C9.59375,0 6.28125,1.32813 3.64063,3.96875 C-1.32813,8.9375 -1.32813,16.875 3.64063,22.1719"/>
<path class="Articulation" transform="matrix(0.822471,0,0,0.822471,1097.8,1750.71)" d="M3.64063,22.1719 C6.28125,24.8281 9.59375,25.8125 12.9063,25.8125 C16.2188,25.8125 19.5313,24.8281 22.1719,22.1719 C27.1406,16.875 27.1406,8.9375 22.1719,3.96875 C19.5313,1.32813 16.2188,0 12.9063,0 C9.59375,0 6.28125,1.32813 3.64063,3.96875 C-1.32813,8.9375 -1.32813,16.875 3.64063,22.1719"/>
<path class="Articulation" transform="matrix(0.822471,0,0,0.822471,9399.51,1816.13)" d="M4.64063,82.0938 C6.625,82.0938 7.60938,81.0938 7.60938,81.0938 L19.2031,68.8438 C19.8594,68.1875 20.1875,67.8594 20.8594,67.8594 C21.5156,67.8594 21.8438,68.1875 22.5,68.8438 L34.0938,81.0938 C34.0938,81.0938 35.0781,82.0938 37.0781,82.0938 C39.0625,82.0938 42.0313,80.7656 42.0313,77.7813 C42.0313,74.1406 25.1563,4.96875 25.1563,4.96875 C24.8281,3.64063 24.1563,0 20.8594,0 C17.5469,0 16.875,3.64063 16.5469,4.96875 C16.5469,4.96875 0,74.1406 0,77.7813 C0,80.7656 2.64063,82.0938 4.64063,82.0938"/>
<path class="Articulation" transform="matrix(0.822471,0,0,0.822471,2487.47,1770.97)" d="M3.64063,22.1719 C6.28125,24.8281 9.59375,25.8125 12.9063,25.8125 C16.2188,25.8125 19.5313,24.8281 22.1719,22.1719 C27.1406,16.875 27.1406,8.9375 22.1719,3.96875 C19.5313,1.32813 16.2188,0 12.9063,0 C9.59375,0 6.28125,1.32813 3.64063,3.96875 C-1.32813,8.9375 -1.32813,16.875 3.64063,22.1719"/>
<path class="Articulation" transform="matrix(0.822471,0,0,0.822471,5826.3,1712.9)" d="M3.64063,22.1719 C6.28125,24.8281 9.59375,25.8125 12.9063,25.8125 C16.2188,25.8125 19.5313,24.8281 22.1719,22.1719 C27.1406,16.875 27.1406,8.9375 22.1719,3.96875 C19.5313,1.32813 16.2188,0 12.9063,0 C9.59375,0 6.28125,1.32813 3.64063,3.96875 C-1.32813,8.9375 -1.32813,16.875 3.64063,22.1719"/>
<path class="Articulation" transform="matrix(0.822471,0,0,0.822471,7617.36,1339.31)" d="M8.28125,-2.3125 L39.7188,-54.9375 L68.5156,-2.3125 C69.1719,-1 71.1563,0 72.8125,0 L93.6719,0 C96.3125,0 97.9688,-1.98438 97.9688,-4.64063 C97.9688,-5.29688 97.9688,-6.28125 97.6406,-6.95313 L52.9531,-81.75 C51.9688,-83.0781 50.9688,-83.4063 48.9844,-83.7344 C47.6563,-83.7344 45.6719,-83.0781 45.0156,-81.75 L0.328125,-6.95313 L8.28125,-2.3125 "/>
<path class="Articulation" transform="matrix(0.822471,0,0,0.822471,8325.43,1750.71)" d="M5.95313,0.328125 C5.625,0.328125 4.96875,0 4.64063,0 C1.98438,0 0,1.98438 0,4.64063 L0,12.25 C0,14.2344 1.65625,15.8906 3.3125,16.5469 L74.1406,38.7188 L3.3125,61.2344 C1.65625,61.8906 0,63.5469 0,65.5313 L0,73.1563 C0,75.7969 1.98438,77.7813 4.64063,77.7813 C4.96875,77.7813 5.625,77.4531 5.95313,77.4531 L116.172,43.3594 C117.828,42.7031 119.484,40.7188 119.484,38.7188 C119.484,36.7344 117.828,35.0781 116.172,34.4219 L5.95313,0.328125 "/>
<path class="Articulation" transform="matrix(0.822471,0,0,0.822471,1612.33,1802.39)" d="M4.64063,82.0938 C6.625,82.0938 7.60938,81.0938 7.60938,81.0938 L19.2031,68.8438 C19.8594,68.1875 20.1875,67.8594 20.8594,67.8594 C21.5156,67.8594 21.8438,68.1875 22.5,68.8438 L34.0938,81.0938 C34.0938,81.0938 35.0781,82.0938 37.0781,82.0938 C39.0625,82.0938 42.0313,80.7656 42.0313,77.7813 C42.0313,74.1406 25.1563,4.96875 25.1563,4.96875 C24.8281,3.64063 24.1563,0 20.8594,0 C17.5469,0 16.875,3.64063 16.5469,4.96875 C16.5469,4.96875 0,74.1406 0,77.7813 C0,80.7656 2.64063,82.0938 4.64063,82.0938"/>
<path class="Articulation" transform="matrix(0.822471,0,0,0.822471,4341.31,1649.25)" d="M4.64063,0 C1.98438,0 0,1.98438 0,4.64063 L0,10.5938 C0,13.2344 1.98438,15.2188 4.64063,15.2188 L99.9531,15.2188 C102.609,15.2188 104.594,13.2344 104.594,10.5938 L104.594,4.64063 C104.594,1.98438 102.609,0 99.9531,0 L4.64063,0 "/>
<path class="Articulation" transform="matrix(0.822471,0,0,0.822471,9406.1,1767.71)" d="M3.64063,22.1719 C6.28125,24.8281 9.59375,25.8125 12.9063,25.8125 C16.2188,25.8125 19.5313,24.8281 22.1719,22.1719 C27.1406,16.875 27.1406,8.9375 22.1719,3.96875 C19.5313,1.32813 16.2188,0 12.9063,0 C9.59375,0 6.28125,1.32813 3.64063,3.96875 C-1.32813,8.9375 -1.32813,16.875 3.64063,22.1719"/>
<path class="Articulation" transform="matrix(0.822471,0,0,0.822471,3651.78,1799.13)" d="M4.64063,82.0938 C6.625,82.0938 7.60938,81.0938 7.60938,81.0938 L19.2031,68.8438 C19.8594,68.1875 20.1875,67.8594 20.8594,67.8594 C21.5156,67.8594 21.8438,68.1875 22.5,68.8438 L34.0938,81.0938 C34.0938,81.0938 35.0781,82.0938 37.0781,82.0938 C39.0625,82.0938 42.0313,80.7656 42.0313,77.7813 C42.0313,74.1406 25.1563,4.96875 25.1563,4.96875 C24.8281,3.64063 24.1563,0 20.8594,0 C17.5469,0 16.875,3.64063 16.5469,4.96875 C16.5469,4.96875 0,74.1406 0,77.7813 C0,80.7656 2.64063,82.0938 4.64063,82.0938"/>
<path class="Articulation" transform="matrix(0.822471,0,0,0.822471,5999.11,3209.3)" d="M86.0625,-111.547 C85.3906,-112.531 83.4063,-113.531 82.0938,-113.531 L77.4531,-113.531 C75.7969,-113.531 73.8125,-112.203 73.1563,-110.547 L43.3594,-27.1406 L13.5781,-110.547 C12.9063,-112.203 10.9219,-113.531 9.26563,-113.531 L4.64063,-113.531 C1.98438,-113.531 0,-111.547 0,-108.891 C0,-108.563 0.328125,-107.578 0.328125,-107.234 L39.0625,-2.98438 C39.7188,-1.32813 41.7031,0 43.3594,0 C45.0156,0 47,-1.32813 47.6563,-2.98438 L86.3906,-107.234 C86.3906,-107.578 86.7188,-108.563 86.7188,-108.891 C86.7188,-109.563 86.3906,-110.891 86.0625,-111.547"/>
<path class="Articulation" transform="matrix(0.822471,0,0,0.822471,3658.38,1750.71)" d="M3.64063,22.1719 C6.28125,24.8281 9.59375,25.8125 12.9063,25.8125 C16.2188,25.8125 19.5313,24.8281 22.1719,22.1719 C27.1406,16.875 27.1406,8.9375 22.1719,3.96875 C19.5313,1.32813 16.2188,0 12.9063,0 C9.59375,0 6.28125,1.32813 3.64063,3.96875 C-1.32813,8.9375 -1.32813,16.875 3.64063,22.1719"/>
<path class="Articulation" transform="matrix(0.822471,0,0,0.822471,3304.36,1750.71)" d="M4.64063,82.0938 C6.625,82.0938 7.60938,81.0938 7.60938,81.0938 L19.2031,68.8438 C19.8594,68.1875 20.1875,67.8594 20.8594,67.8594 C21.5156,67.8594 21.8438,68.1875 22.5,68.8438 L34.0938,81.0938 C34.0938,81.0938 35.0781,82.0938 37.0781,82.0938 C39.0625,82.0938 42.0313,80.7656 42.0313,77.7813 C42.0313,74.1406 25.1563,4.96875 25.1563,4.96875 C24.8281,3.64063 24.1563,0 20.8594,0 C17.5469,0 16.875,3.64063 16.5469,4.96875 C16.5469,4.96875 0,74.1406 0,77.7813 C0,80.7656 2.64063,82.0938 4.64063,82.0938"/>
<path class="Articulation" transform="matrix(0.822471,0,0,0.822471,7231.65,3620.7)" d="M3.64063,22.1719 C6.28125,24.8281 9.59375,25.8125 12.9063,25.8125 C16.2188,25.8125 19.5313,24.8281 22.1719,22.1719 C27.1406,16.875 27.1406,8.9375 22.1719,3.96875 C19.5313,1.32813 16.2188,0 12.9063,0 C9.59375,0 6.28125,1.32813 3.64063,3.96875 C-1.32813,8.9375 -1.32813,16.875 3.64063,22.1719"/>
<path class="Dynamic" d="M720.456,3695.78 C719.91,3695.78 718.831,3695.78 718.285,3695.51 C714.206,3693.87 713.113,3688.98 713.113,3683.81 C713.113,3675.37 716.113,3665.59 716.378,3665.04 C718.285,3656.89 728.613,3637.58 738.956,3637.58 C739.769,3637.58 740.581,3637.58 741.128,3637.84 C744.394,3638.65 744.941,3643.83 744.941,3646.54 C744.941,3659.61 735.425,3689.53 723.456,3695.23 C722.628,3695.78 721.269,3695.78 720.456,3695.78 M712.847,3743.39 L712.847,3737.94 L692.441,3737.94 L708.222,3694.15 L709.035,3696.06 C709.035,3696.06 711.753,3702.03 721.003,3704.48 C722.628,3705.03 724.535,3705.03 726.175,3705.03 C749.285,3705.03 763.972,3673.2 763.972,3652.53 C763.972,3641.37 757.456,3628.04 744.941,3628.04 C736.503,3628.04 728.081,3635.12 723.456,3639.75 L722.628,3640.56 L722.097,3639.48 C722.097,3639.48 716.378,3629.14 706.863,3627.78 C705.769,3627.78 704.956,3627.51 703.863,3627.51 C694.894,3627.51 685.644,3633.76 677.753,3656.34 L682.644,3658.79 C683.738,3655.25 686.456,3646.54 689.722,3642.2 C691.347,3639.75 694.613,3637.58 697.066,3637.03 C697.331,3637.03 697.878,3637.03 698.16,3637.03 C698.972,3637.03 699.785,3637.29 700.331,3637.58 C701.425,3638.39 701.691,3639.75 701.691,3641.65 C701.691,3648.19 696.8,3660.15 695.441,3662.87 L668.503,3737.94 L651.91,3737.94 L651.91,3743.39 L712.847,3743.39 "/>
<path class="Dynamic" d="M2168.51,3649.75 C2164.69,3651.92 2163.88,3655.19 2163.88,3657.09 C2163.88,3660.08 2166.32,3664.7 2171.49,3664.7 C2176.66,3664.7 2178.57,3660.91 2179.1,3658.19 C2179.38,3657.64 2179.38,3656.83 2179.38,3656 C2179.38,3649.75 2174.21,3640.23 2158.43,3640.23 C2140.21,3640.23 2132.05,3652.2 2132.05,3662.81 C2132.05,3668.52 2133.96,3674.77 2141.57,3679.12 C2144.83,3681.03 2149.19,3683.2 2153.82,3685.92 C2158.43,3688.64 2159.52,3692.45 2159.52,3695.17 C2159.52,3697.89 2156.26,3707.14 2146.19,3707.14 C2138.3,3707.14 2136.4,3704.42 2136.4,3703.06 C2136.4,3702.8 2136.4,3702.52 2136.68,3702.52 C2137.49,3701.97 2141.02,3700.06 2141.02,3693.55 C2141.02,3686.47 2136.4,3683.48 2132.32,3683.48 C2128.24,3683.48 2122.8,3686.47 2122.8,3694.62 C2122.8,3706.87 2132.05,3713.12 2146.19,3713.12 C2160.33,3713.12 2176.12,3707.14 2176.12,3690.83 C2176.12,3674.5 2161.98,3670.42 2155.18,3666.61 C2148.37,3662.81 2147.01,3661.17 2147.01,3656.55 C2147.01,3651.92 2152.18,3646.22 2159.26,3646.22 C2166.32,3646.22 2168.51,3649.75 2168.51,3649.75 M2163.05,3728.08 C2155.71,3728.08 2148.91,3734.89 2148.91,3742.23 C2148.91,3756.37 2158.43,3764.27 2170.94,3764.27 C2179.65,3764.27 2185.91,3761.55 2192.71,3754.73 C2204.68,3742.78 2217.73,3702.25 2224.26,3679.12 C2226.71,3670.42 2229.16,3661.98 2231.05,3655.73 L2231.05,3655.19 L2250.65,3655.19 C2252.27,3655.19 2253.37,3654.09 2253.37,3652.47 L2253.37,3646.48 C2253.37,3644.86 2252.27,3643.77 2250.65,3643.77 L2234.6,3643.77 L2234.6,3642.95 C2242.21,3615.2 2244.38,3610.31 2248.48,3607.05 C2250.65,3605.41 2252.55,3604.87 2253.91,3604.87 C2254.46,3604.87 2254.99,3605.14 2255.27,3605.14 C2256.9,3605.41 2258.26,3607.05 2258.26,3608.67 C2258.26,3610.03 2257.71,3611.39 2256.63,3611.94 C2253.91,3614.11 2252.55,3617.66 2252.55,3621.45 C2252.55,3622.83 2252.82,3623.91 2253.1,3625.27 C2253.91,3627.72 2256.08,3630.17 2258.8,3631.25 C2259.9,3631.8 2261.8,3632.34 2263.69,3632.34 C2269.41,3632.34 2275.13,3627.98 2276.49,3622.55 C2277.02,3621.19 2277.02,3619.56 2277.02,3617.92 C2277.02,3604.33 2264.79,3597.25 2252.55,3597.25 C2227.26,3597.25 2216.1,3623.09 2209.3,3643.22 L2209.3,3643.77 L2188.63,3643.77 C2186.99,3643.77 2185.91,3644.86 2185.91,3646.48 L2185.91,3652.47 C2185.91,3654.09 2186.99,3655.19 2188.63,3655.19 L2205.49,3655.19 L2205.49,3656.28 C2202.77,3667.16 2200.6,3676.41 2198.69,3685.37 C2196.52,3695.45 2194.07,3705.78 2190.8,3718.3 L2189.99,3721.56 C2184.27,3743.86 2182.65,3751.75 2176.12,3756.11 C2174.76,3756.92 2173.13,3757.47 2171.49,3757.47 C2170.13,3757.47 2168.77,3756.92 2167.68,3756.11 C2166.6,3755.28 2166.32,3754.47 2166.32,3753.11 C2166.6,3752.02 2167.15,3750.94 2168.51,3750.39 C2173.66,3748.22 2175.3,3743.31 2175.3,3738.97 C2175.3,3735.16 2172.85,3728.08 2163.05,3728.08"/>
<path class="Beam" fill-rule="evenodd" d="M4074.27,1349.51 L4775.9,1366.51 L4775.9,1400.52 L4074.27,1383.52 L4074.27,1349.51 "/>
<path class="Beam" fill-rule="evenodd" d="M2950.42,1689.51 L3652.05,1689.51 L3652.05,1723.51 L2950.42,1723.51 L2950.42,1689.51 "/>
<path class="Beam" fill-rule="evenodd" d="M5874.37,1400.51 L6576,1400.51 L6576,1434.51 L5874.37,1434.51 L5874.37,1400.51 "/>
<path class="Beam" fill-rule="evenodd" d="M686.87,3559.5 L1676.06,3559.5 L1676.06,3593.5 L686.87,3593.5 L686.87,3559.5 "/>
<path class="Beam" fill-rule="evenodd" d="M2242.06,3219.5 L3231.25,3236.5 L3231.25,3270.5 L2242.06,3253.5 L2242.06,3219.5 "/>
<path class="NoteDot" transform="matrix(0.822471,0,0,0.822471,3853.7,3525.5)" d="M0,0 C0,9.26563 7.28125,16.5469 16.5469,16.5469 C25.8125,16.5469 33.0938,9.26563 33.0938,0 C33.0938,-9.26563 25.8125,-16.5469 16.5469,-16.5469 C7.28125,-16.5469 0,-9.26563 0,0"/>
<path class="NoteDot" transform="matrix(0.822471,0,0,0.822471,5254.57,1451.51)" d="M0,0 C0,9.26563 7.28125,16.5469 16.5469,16.5469 C25.8125,16.5469 33.0938,9.26563 33.0938,0 C33.0938,-9.26563 25.8125,-16.5469 16.5469,-16.5469 C7.28125,-16.5469 0,-9.26563 0,0"/>
<path class="NoteDot" transform="matrix(0.822471,0,0,0.822471,7340.94,3321.5)" d="M0,0 C0,9.26563 7.28125,16.5469 16.5469,16.5469 C25.8125,16.5469 33.0938,9.26563 33.0938,0 C33.0938,-9.26563 25.8125,-16.5469 16.5469,-16.5469 C7.28125,-16.5469 0,-9.26563 0,0"/>
<path class="NoteDot" transform="matrix(0.822471,0,0,0.822471,7054.67,1587.51)" d="M0,0 C0,9.26563 7.28125,16.5469 16.5469,16.5469 C25.8125,16.5469 33.0938,9.26563 33.0938,0 C33.0938,-9.26563 25.8125,-16.5469 16.5469,-16.5469 C7.28125,-16.5469 0,-9.26563 0,0"/>
<path class="NoteDot" transform="matrix(0.822471,0,0,0.822471,7715.28,1587.51)" d="M0,0 C0,9.26563 7.28125,16.5469 16.5469,16.5469 C25.8125,16.5469 33.0938,9.26563 33.0938,0 C33.0938,-9.26563 25.8125,-16.5469 16.5469,-16.5469 C7.28125,-16.5469 0,-9.26563 0,0"/>
</svg>
