<?xml version="1.0" encoding="UTF-8" standalone="no"?>
<svg width="232.883mm" height="320.106mm" viewBox="0 0 11002.3 15123.1"
 xmlns="http://www.w3.org/2000/svg" xmlns:xlink="http://www.w3.org/1999/xlink" version="1.2" baseProfile="full">
<title>soprano.musicxml (1)</title>
<desc>Generated by MuseScore Studio 4.7.4</desc>
<path class="" fill="#ffffff" fill-rule="evenodd" d="M0,0 L11002.3,0 L11002.3,15123.1 L0,15123.1 L0,0 "/>
<polyline class="StaffLines" fill="none" stroke="#000000" stroke-width="7.48" stroke-linejoin="bevel" points="1125,1949.51 10458.3,1949.51" />
<polyline class="StaffLines" fill="none" stroke="#000000" stroke-width="7.48" stroke-linejoin="bevel" points="1125,2017.51 10458.3,2017.51" />
<polyline class="StaffLines" fill="none" stroke="#000000" stroke-width="7.48" stroke-linejoin="bevel" points="1125,2085.51 10458.3,2085.51" />
<polyline class="StaffLines" fill="none" stroke="#000000" stroke-width="7.48" stroke-linejoin="bevel" points="1125,2153.51 10458.3,2153.51" />
<polyline class="StaffLines" fill="none" stroke="#000000" stroke-width="7.48" stroke-linejoin="bevel" points="1125,2221.51 10458.3,2221.51" />
<polyline class="StaffLines" fill="none" stroke="#000000" stroke-width="7.48" stroke-linejoin="bevel" points="686.996,3819.5 10458.3,3819.5" />
<polyline class="StaffLines" fill="none" stroke="#000000" stroke-width="7.48" stroke-linejoin="bevel" points="686.996,3887.5 10458.3,3887.5" />
<polyline class="StaffLines" fill="none" stroke="#000000" stroke-width="7.48" stroke-linejoin="bevel" points="686.996,3955.5 10458.3,3955.5" />
<polyline class="StaffLines" fill="none" stroke="#000000" stroke-width="7.48" stroke-linejoin="bevel" points="686.996,4023.5 10458.3,4023.5" />
<polyline class="StaffLines" fill="none" stroke="#000000" stroke-width="7.48" stroke-linejoin="bevel" points="686.996,4091.5 10458.3,4091.5" />
<path class="Text" d="M5196.2,547.45 L5182.26,547.45 L5167.95,569.466 C5144.09,550.747 5127.95,544.512 5101.15,544.512 C5072.15,544.512 5049.4,552.591 5026.28,571.309 C4989.95,600.669 4973.07,637.731 4973.07,687.278 C4973.07,724.716 4983.72,755.903 5005.36,779.762 C5028.12,805.45 5061.89,820.497 5097.12,820.497 C5127.95,820.497 5149.59,810.966 5173.45,787.106 L5187.03,820.137 L5202.45,820.137 L5202.45,739.387 C5202.45,720.684 5202.45,719.95 5204.65,716.637 C5207.95,712.606 5214.56,711.497 5235.48,711.497 L5240.98,711.497 L5240.98,694.247 L5124.28,694.247 L5124.28,711.497 L5131.25,711.497 C5162.07,711.497 5164.64,713.341 5164.64,733.887 C5164.64,749.669 5162.07,763.981 5157.31,772.794 C5148.12,790.778 5124.64,803.247 5100.78,803.247 C5076.93,803.247 5053.43,791.137 5040.97,772.794 C5027.39,752.247 5021.51,726.544 5021.51,687.278 C5021.51,605.434 5048.67,561.762 5099.68,561.762 C5141.53,561.762 5170.51,591.856 5185.56,650.575 L5201.34,650.575 L5196.2,547.45 M5318.53,544.512 L5250.62,548.559 L5250.62,564.341 L5268.61,564.341 C5282.18,564.7 5284.03,566.903 5284.03,582.684 L5284.03,787.106 C5283.65,792.606 5283.29,794.809 5281.82,796.653 C5279.25,799.95 5272.28,801.419 5256.5,801.778 L5253.93,801.778 L5253.93,814.997 L5348.98,814.997 L5348.98,801.778 L5346.42,801.778 C5321.82,801.044 5318.53,799.216 5318.53,785.997 L5318.53,544.512 M5452.14,638.466 C5407,638.466 5372.14,678.466 5372.14,729.856 C5372.14,780.137 5407.36,820.497 5451.4,820.497 C5495.45,820.497 5530.68,780.137 5530.68,729.481 C5530.68,679.2 5495.45,638.466 5452.14,638.466 M5452.14,654.247 C5477.82,654.247 5492.14,681.044 5492.14,729.481 C5492.14,778.294 5477.82,804.716 5451.4,804.716 C5424.98,804.716 5410.67,778.294 5410.67,729.856 C5410.67,679.934 5424.61,654.247 5452.14,654.247 M5616.32,643.966 L5551.36,648.012 L5551.36,663.794 L5566.4,663.794 C5580.36,664.153 5582.18,666.356 5582.18,682.137 L5582.18,787.106 C5581.82,792.606 5581.45,794.809 5579.98,796.653 C5577.42,799.95 5570.07,801.419 5554.29,801.778 L5552.82,801.778 L5552.82,814.997 L5650.82,814.997 L5650.82,801.778 L5644.22,801.778 C5619.62,801.044 5616.32,799.216 5616.32,785.997 L5616.32,766.184 C5616.68,704.528 5638.7,657.559 5667.34,656.091 C5662.2,661.95 5660.73,665.622 5660.73,672.606 C5660.73,684.341 5669.17,692.778 5680.92,692.778 C5694.5,692.778 5703.29,682.872 5703.29,668.2 C5703.29,650.216 5690.82,638.466 5671.37,638.466 C5648.25,638.466 5628.43,656.825 5616.32,689.481 L5616.32,643.966 M5772.01,552.591 C5760.26,552.591 5750.72,562.137 5750.72,573.872 C5750.72,585.622 5760.26,595.169 5771.64,595.169 C5783.75,595.169 5793.29,585.622 5793.29,573.872 C5793.29,562.137 5783.75,552.591 5772.01,552.591 M5789.26,643.966 L5720.26,648.012 L5720.26,663.794 L5738.98,663.794 C5752.92,664.153 5754.76,666.356 5754.76,682.137 L5754.76,787.106 C5754.39,792.606 5754.03,794.809 5752.56,796.653 C5749.98,799.95 5743.01,801.419 5727.23,801.778 L5724.67,801.778 L5724.67,814.997 L5819.72,814.997 L5819.72,801.778 L5817.15,801.778 C5792.56,801.044 5789.26,799.216 5789.26,785.997 L5789.26,643.966 M5995.54,696.825 C5995.54,673.7 5991.5,661.95 5980.86,653.153 C5968.75,643.231 5950.76,638.466 5927.28,638.466 C5885.81,638.466 5855.72,657.919 5855.72,684.716 C5855.72,698.294 5864.15,707.091 5877,707.091 C5888.75,707.091 5896.81,699.387 5896.81,688.387 C5896.81,683.606 5894.98,678.466 5891.31,673.341 C5889.11,670.762 5888.75,670.028 5888.75,668.2 C5888.75,660.856 5903.42,654.247 5921.04,654.247 C5932.78,654.247 5945.62,657.919 5951.5,663.419 C5958.47,669.294 5961.04,678.106 5961.04,694.622 L5961.04,708.934 C5922.87,715.544 5910.76,718.481 5892.78,725.45 C5860.86,737.184 5845.79,754.075 5845.79,777.559 C5845.79,803.981 5866.36,820.497 5899.01,820.497 C5924.34,820.497 5947.09,810.231 5962.87,791.512 C5968.75,810.231 5977.92,817.559 5995.17,817.559 C6011.68,817.559 6028.93,806.919 6028.93,796.278 C6028.93,793.716 6027.47,791.872 6025.26,791.872 C6023.79,791.872 6022.32,792.247 6019.76,793.341 C6014.62,795.544 6012.42,795.919 6009.48,795.919 C5999.22,795.919 5995.54,789.309 5995.54,770.591 L5995.54,696.825 M5961.04,741.591 C5961.04,763.622 5959.93,768.747 5953.7,778.294 C5944.53,791.872 5928.01,801.044 5911.86,801.044 C5894.98,801.044 5882.87,788.934 5882.87,772.419 C5882.87,757.012 5890.57,745.997 5906.73,738.294 C5918.11,733.153 5932.42,729.481 5961.04,724.716 L5961.04,741.591 "/>
<path class="MeasureNumber" d="M704.012,3638.95 C706.278,3627.25 708.934,3619.92 713.981,3611.01 C719.965,3600.51 727.153,3595.19 735.137,3595.19 C739.246,3595.19 741.778,3596.78 741.778,3599.31 C741.778,3600.25 741.512,3600.78 740.59,3602.5 C739.387,3604.76 738.856,3606.36 738.856,3608.36 C738.856,3612.61 742.043,3615.55 746.575,3615.55 C752.028,3615.55 755.746,3611.55 755.746,3605.56 C755.746,3596.51 747.231,3589.87 735.403,3589.87 C705.746,3589.87 687.778,3628.58 687.778,3654.11 C687.778,3673.65 697.496,3685.5 713.715,3685.5 C733.668,3685.5 748.434,3669 748.434,3649.45 C748.434,3635.89 739.246,3626.44 725.95,3626.44 C716.637,3626.44 709.465,3630.44 704.012,3638.95 M721.7,3634.15 C729.95,3634.15 734.465,3639.87 734.465,3650.25 C734.465,3667.14 725.559,3680.05 713.715,3680.05 C705.2,3680.05 700.153,3673.8 700.153,3663.15 C700.153,3646.53 709.325,3634.15 721.7,3634.15"/>
<path class="InstrumentName" d="M612.794,2022.27 L607.731,2022.27 L602.247,2030.49 C595.669,2024.34 587.044,2021.04 577.309,2021.04 C559.231,2021.04 547.309,2032.41 547.309,2049.68 C547.309,2064.6 554.716,2072.01 574.841,2077.21 L587.856,2080.49 C597.997,2083.1 598.966,2083.38 601.841,2085.57 C605.95,2088.71 608.137,2093.24 608.137,2098.59 C608.137,2104.05 606.075,2108.59 601.966,2112.41 C597.45,2116.26 592.934,2117.76 585.403,2117.76 C564.716,2117.76 554.434,2102.55 550.872,2084.05 L544.981,2084.05 L545.528,2123.1 L550.872,2123.1 L557.044,2113.79 C566.216,2121.32 573.747,2124.07 585.809,2124.07 C605.95,2124.07 618.825,2112.29 618.825,2093.93 C618.825,2085.29 616.091,2078.16 610.606,2072.96 C606.903,2069.4 601.559,2067.07 590.606,2064.34 L575.95,2060.63 C563.747,2057.48 557.997,2052.15 557.997,2043.79 C557.997,2034.2 565.809,2027.62 577.45,2027.62 C595.122,2027.62 604.856,2042.27 608.544,2057.9 L614.434,2057.9 L612.794,2022.27 M659.512,2056.12 C642.669,2056.12 629.653,2071.04 629.653,2090.23 C629.653,2108.99 642.809,2124.07 659.247,2124.07 C675.684,2124.07 688.841,2108.99 688.841,2090.09 C688.841,2071.32 675.684,2056.12 659.512,2056.12 M659.512,2062.01 C669.106,2062.01 674.45,2072.01 674.45,2090.09 C674.45,2108.3 669.106,2118.18 659.247,2118.18 C649.387,2118.18 644.044,2108.3 644.044,2090.23 C644.044,2071.6 649.247,2062.01 659.512,2062.01 M721.528,2058.16 L697.825,2059.68 L697.825,2065.57 L702.762,2065.57 C707.966,2065.71 708.653,2066.52 708.653,2072.41 L708.653,2139.4 C708.512,2141.32 708.387,2142.15 707.841,2142.84 C706.872,2144.07 704.278,2144.62 698.387,2144.74 L697.825,2144.74 L697.825,2149.68 L733.45,2149.68 L733.45,2144.74 L731.95,2144.74 C722.762,2144.48 721.528,2143.79 721.528,2138.85 L721.528,2112.96 C726.059,2120.91 731.122,2124.07 739.622,2124.07 C757.841,2124.07 767.294,2106.12 767.294,2089.82 C767.294,2074.34 757.841,2056.12 740.434,2056.12 C731.95,2056.12 726.325,2059.68 721.528,2067.9 L721.528,2058.16 M737.966,2063.51 C747.419,2063.51 752.903,2072.96 752.903,2088.99 C752.903,2106.66 747.419,2116.66 737.559,2116.66 C727.7,2116.66 721.403,2106.52 721.403,2090.77 C721.403,2073.65 727.559,2063.51 737.966,2063.51 M800.122,2058.16 L775.872,2059.68 L775.872,2065.57 L781.497,2065.57 C786.7,2065.71 787.387,2066.52 787.387,2072.41 L787.387,2111.6 C787.247,2113.65 787.106,2114.48 786.559,2115.16 C785.606,2116.4 782.856,2116.95 776.966,2117.07 L776.419,2117.07 L776.419,2122.01 L812.997,2122.01 L812.997,2117.07 L810.528,2117.07 C801.356,2116.8 800.122,2116.12 800.122,2111.18 L800.122,2103.79 C800.262,2080.77 808.481,2063.24 819.169,2062.7 C817.247,2064.88 816.7,2066.26 816.7,2068.85 C816.7,2073.24 819.856,2076.38 824.231,2076.38 C829.294,2076.38 832.591,2072.7 832.591,2067.21 C832.591,2060.49 827.934,2056.12 820.669,2056.12 C812.044,2056.12 804.637,2062.96 800.122,2075.15 L800.122,2058.16 M894.919,2077.9 C894.919,2069.26 893.419,2064.88 889.434,2061.59 C884.919,2057.9 878.2,2056.12 869.434,2056.12 C853.95,2056.12 842.716,2063.37 842.716,2073.38 C842.716,2078.45 845.872,2081.73 850.669,2081.73 C855.059,2081.73 858.059,2078.85 858.059,2074.74 C858.059,2072.96 857.387,2071.04 856.012,2069.13 C855.184,2068.16 855.059,2067.9 855.059,2067.21 C855.059,2064.48 860.528,2062.01 867.106,2062.01 C871.497,2062.01 876.294,2063.37 878.481,2065.43 C881.075,2067.62 882.044,2070.91 882.044,2077.07 L882.044,2082.41 C867.794,2084.88 863.278,2085.98 856.559,2088.59 C844.637,2092.96 839.028,2099.27 839.028,2108.04 C839.028,2117.9 846.7,2124.07 858.887,2124.07 C868.341,2124.07 876.841,2120.23 882.731,2113.24 C884.919,2120.23 888.341,2122.96 894.778,2122.96 C900.95,2122.96 907.387,2118.99 907.387,2115.02 C907.387,2114.05 906.841,2113.38 906.012,2113.38 C905.466,2113.38 904.919,2113.51 903.966,2113.93 C902.044,2114.74 901.216,2114.88 900.122,2114.88 C896.294,2114.88 894.919,2112.41 894.919,2105.43 L894.919,2077.9 M882.044,2094.6 C882.044,2102.84 881.622,2104.74 879.294,2108.3 C875.872,2113.38 869.716,2116.8 863.684,2116.8 C857.387,2116.8 852.856,2112.29 852.856,2106.12 C852.856,2100.37 855.731,2096.26 861.762,2093.38 C866.012,2091.46 871.356,2090.09 882.044,2088.3 L882.044,2094.6 M936.403,2058.16 L912.7,2059.68 L912.7,2065.57 L917.622,2065.57 C922.841,2065.71 923.512,2066.52 923.512,2072.41 L923.512,2111.6 C923.387,2113.65 923.247,2114.48 922.7,2115.16 C921.731,2116.4 919.137,2116.95 913.247,2117.07 L912.7,2117.07 L912.7,2122.01 L947.356,2122.01 L947.356,2117.07 L946.809,2117.07 C937.622,2116.8 936.403,2116.12 936.403,2111.18 L936.403,2090.91 C936.403,2084.2 937.356,2078.04 938.856,2074.88 C941.731,2068.71 947.903,2064.48 953.794,2064.48 C957.356,2064.48 961.466,2066.38 963.512,2069.26 C965.575,2072.27 966.528,2076.38 966.528,2082.96 L966.528,2111.6 C966.403,2113.65 966.262,2114.48 965.716,2115.16 C964.747,2116.4 962.012,2116.95 956.122,2117.07 L955.575,2117.07 L955.575,2122.01 L990.231,2122.01 L990.231,2117.07 L989.684,2117.07 C980.637,2116.8 979.419,2116.12 979.419,2111.18 L979.419,2083.65 C979.419,2073.79 978.997,2071.32 976.528,2066.66 C973.106,2060.09 966.262,2056.12 958.044,2056.12 C949.137,2056.12 942.419,2060.23 936.403,2069.26 L936.403,2058.16 M1027.51,2056.12 C1010.67,2056.12 997.653,2071.04 997.653,2090.23 C997.653,2108.99 1010.81,2124.07 1027.25,2124.07 C1043.68,2124.07 1056.84,2108.99 1056.84,2090.09 C1056.84,2071.32 1043.68,2056.12 1027.51,2056.12 M1027.51,2062.01 C1037.11,2062.01 1042.45,2072.01 1042.45,2090.09 C1042.45,2108.3 1037.11,2118.18 1027.25,2118.18 C1017.39,2118.18 1012.04,2108.3 1012.04,2090.23 C1012.04,2071.6 1017.25,2062.01 1027.51,2062.01"/>
<path class="InstrumentName" d="M612.794,3904.76 L607.731,3904.76 L602.247,3912.98 C595.669,3906.83 587.044,3903.53 577.309,3903.53 C559.231,3903.53 547.309,3914.9 547.309,3932.17 C547.309,3947.09 554.716,3954.5 574.841,3959.7 L587.856,3962.98 C597.997,3965.59 598.966,3965.87 601.841,3968.06 C605.95,3971.2 608.137,3975.73 608.137,3981.08 C608.137,3986.54 606.075,3991.08 601.966,3994.9 C597.45,3998.75 592.934,4000.25 585.403,4000.25 C564.716,4000.25 554.434,3985.04 550.872,3966.54 L544.981,3966.54 L545.528,4005.59 L550.872,4005.59 L557.044,3996.28 C566.216,4003.81 573.747,4006.56 585.809,4006.56 C605.95,4006.56 618.825,3994.78 618.825,3976.42 C618.825,3967.78 616.091,3960.65 610.606,3955.45 C606.903,3951.89 601.559,3949.56 590.606,3946.83 L575.95,3943.12 C563.747,3939.97 557.997,3934.64 557.997,3926.28 C557.997,3916.68 565.809,3910.11 577.45,3910.11 C595.122,3910.11 604.856,3924.76 608.544,3940.39 L614.434,3940.39 L612.794,3904.76 "/>
<polyline class="BarLine" fill="none" stroke="#000000" stroke-width="12.24" stroke-linejoin="bevel" points="8687.03,3815.76 8687.03,4095.24" />
<polyline class="BarLine" fill="none" stroke="#000000" stroke-width="12.24" stroke-linejoin="bevel" points="5482.26,1945.77 5482.26,2225.25" />
<polyline class="BarLine" fill="none" stroke="#000000" stroke-width="12.24" stroke-linejoin="bevel" points="10452.2,1945.77 10452.2,2225.25" />
<polyline class="BarLine" fill="none" stroke="#000000" stroke-width="12.24" stroke-linejoin="bevel" points="6423.06,3815.76 6423.06,4095.24" />
<polyline class="BarLine" fill="none" stroke="#000000" stroke-width="12.24" stroke-linejoin="bevel" points="4159.09,3815.76 4159.09,4095.24" />
<polyline class="BarLine" fill="none" stroke="#000000" stroke-width="12.24" stroke-linejoin="bevel" points="3476.09,1945.77 3476.09,2225.25" />
<polyline class="BarLine" fill="none" stroke="#000000" stroke-width="12.24" stroke-linejoin="bevel" points="8648.16,1945.77 8648.16,2225.25" />
<polyline class="BarLine" fill="none" stroke="#000000" stroke-width="12.24" stroke-linejoin="bevel" points="7252.7,1945.77 7252.7,2225.25" />
<polyline class="BarLine" fill="none" stroke="#000000" stroke-width="12.24" stroke-linejoin="bevel" points="10452.2,3815.76 10452.2,4095.24" />
<path class="Accidental" transform="matrix(0.822471,0,0,0.822471,1127.12,3853.5)" d="M43.6875,-13.2344 C43.6875,12.9063 30.125,26.8125 10.9219,42.0313 L11.9219,-22.5 C12.5781,-25.4844 17.5469,-35.0781 30.7813,-35.0781 C42.7031,-35.0781 43.6875,-23.8281 43.6875,-16.875 L43.6875,-13.2344 M39.7188,-51.2969 C23.1719,-51.2969 13.5781,-41.0469 11.9219,-39.0625 L13.2344,-145.313 C13.2344,-147.953 11.25,-149.938 8.60938,-149.938 L4.64063,-149.938 C1.98438,-149.938 0,-147.953 0,-145.313 L1.65625,53.625 C1.65625,56.2656 3.64063,58.25 6.28125,58.25 C6.95313,58.25 8.28125,57.9219 8.9375,57.5938 C37.4063,43.3594 67.1875,16.2188 67.1875,-17.875 C67.1875,-35.0781 59.25,-51.2969 39.7188,-51.2969"/>
<path class="Accidental" transform="matrix(0.822471,0,0,0.822471,3526.41,1983.51)" d="M43.6875,-13.2344 C43.6875,12.9063 30.125,26.8125 10.9219,42.0313 L11.9219,-22.5 C12.5781,-25.4844 17.5469,-35.0781 30.7813,-35.0781 C42.7031,-35.0781 43.6875,-23.8281 43.6875,-16.875 L43.6875,-13.2344 M39.7188,-51.2969 C23.1719,-51.2969 13.5781,-41.0469 11.9219,-39.0625 L13.2344,-145.313 C13.2344,-147.953 11.25,-149.938 8.60938,-149.938 L4.64063,-149.938 C1.98438,-149.938 0,-147.953 0,-145.313 L1.65625,53.625 C1.65625,56.2656 3.64063,58.25 6.28125,58.25 C6.95313,58.25 8.28125,57.9219 8.9375,57.5938 C37.4063,43.3594 67.1875,16.2188 67.1875,-17.875 C67.1875,-35.0781 59.25,-51.2969 39.7188,-51.2969"/>
<polyline class="Stem" fill="none" stroke="#000000" stroke-width="6.80" stroke-linejoin="bevel" points="9336.32,2176.63 9336.32,1950.05" />
<polyline class="Stem" fill="none" stroke="#000000" stroke-width="6.80" stroke-linejoin="bevel" points="9596.09,2062.93 9596.09,2272.51" />
<polyline class="Stem" fill="none" stroke="#000000" stroke-width="6.80" stroke-linejoin="bevel" points="10108.1,2062.93 10108.1,2272.23" />
<polyline class="Stem" fill="none" stroke="#000000" stroke-width="6.80" stroke-linejoin="bevel" points="1695.01,3898.92 1695.01,4091.5" />
<polyline class="Stem" fill="none" stroke="#000000" stroke-width="6.80" stroke-linejoin="bevel" points="1848.14,2176.63 1848.14,1949.51" />
<polyline class="Stem" fill="none" stroke="#000000" stroke-width="6.80" stroke-linejoin="bevel" points="2187.28,3932.92 2187.28,4108.38" />
<polyline class="Stem" fill="none" stroke="#000000" stroke-width="6.80" stroke-linejoin="bevel" points="2679.55,3966.92 2679.55,4142.5" />
<polyline class="Stem" fill="none" stroke="#000000" stroke-width="6.80" stroke-linejoin="bevel" points="2360.19,2176.63 2360.19,1950.05" />
<polyline class="Stem" fill="none" stroke="#000000" stroke-width="6.80" stroke-linejoin="bevel" points="3171.82,3966.92 3171.82,4142.5" />
<polyline class="Stem" fill="none" stroke="#000000" stroke-width="6.80" stroke-linejoin="bevel" points="2619.96,2062.93 2619.96,2272.51" />
<polyline class="Stem" fill="none" stroke="#000000" stroke-width="6.80" stroke-linejoin="bevel" points="4253.6,3932.92 4253.6,4142.5" />
<polyline class="Stem" fill="none" stroke="#000000" stroke-width="6.80" stroke-linejoin="bevel" points="5271.26,3978.62 5271.26,3768.5" />
<polyline class="Stem" fill="none" stroke="#000000" stroke-width="6.80" stroke-linejoin="bevel" points="3132,2062.93 3132,2272.23" />
<polyline class="Stem" fill="none" stroke="#000000" stroke-width="6.80" stroke-linejoin="bevel" points="5928.07,3966.92 5928.07,4176.22" />
<polyline class="Stem" fill="none" stroke="#000000" stroke-width="6.80" stroke-linejoin="bevel" points="3602.03,1994.93 3602.03,2204.67" />
<polyline class="Stem" fill="none" stroke="#000000" stroke-width="6.80" stroke-linejoin="bevel" points="7337.59,4012.62 7337.59,3786.04" />
<polyline class="Stem" fill="none" stroke="#000000" stroke-width="6.80" stroke-linejoin="bevel" points="7829.86,4046.62 7829.86,3819.5" />
<polyline class="Stem" fill="none" stroke="#000000" stroke-width="6.80" stroke-linejoin="bevel" points="3943.4,2028.93 3943.4,2221.51" />
<polyline class="Stem" fill="none" stroke="#000000" stroke-width="6.80" stroke-linejoin="bevel" points="6599.18,4012.62 6599.18,3785.5" />
<polyline class="Stem" fill="none" stroke="#000000" stroke-width="6.80" stroke-linejoin="bevel" points="4284.76,2062.93 4284.76,2238.34" />
<polyline class="Stem" fill="none" stroke="#000000" stroke-width="6.80" stroke-linejoin="bevel" points="4626.13,2096.93 4626.13,2289.51" />
<polyline class="Stem" fill="none" stroke="#000000" stroke-width="6.80" stroke-linejoin="bevel" points="5138.17,2096.93 5138.17,2306.23" />
<polyline class="Stem" fill="none" stroke="#000000" stroke-width="6.80" stroke-linejoin="bevel" points="5658.38,2108.63 5658.38,1898.51" />
<polyline class="Stem" fill="none" stroke="#000000" stroke-width="6.80" stroke-linejoin="bevel" points="6307.48,2074.63 6307.48,1898.51" />
<polyline class="Stem" fill="none" stroke="#000000" stroke-width="6.80" stroke-linejoin="bevel" points="6648.85,2108.63 6648.85,1898.51" />
<polyline class="Stem" fill="none" stroke="#000000" stroke-width="6.80" stroke-linejoin="bevel" points="6990.21,2074.63 6990.21,1898.51" />
<polyline class="Stem" fill="none" stroke="#000000" stroke-width="6.80" stroke-linejoin="bevel" points="1202.74,3864.92 1202.74,4074.61" />
<polyline class="Stem" fill="none" stroke="#000000" stroke-width="6.80" stroke-linejoin="bevel" points="7428.82,2142.63 7428.82,1915.51" />
<polyline class="Stem" fill="none" stroke="#000000" stroke-width="6.80" stroke-linejoin="bevel" points="8077.93,2142.63 8077.93,1915.51" />
<polyline class="Stem" fill="none" stroke="#000000" stroke-width="6.80" stroke-linejoin="bevel" points="8824.27,2176.63 8824.27,1949.51" />
<polyline class="Stem" fill="none" stroke="#000000" stroke-width="6.80" stroke-linejoin="bevel" points="3664.09,3966.92 3664.09,4142.5" />
<path class="Hook" transform="matrix(0.822471,0,0,0.822471,9332.92,1949.51)" d="M0,75.1406 C0,76.125 0.328125,77.7813 2.64063,78.7813 C16.875,83.4063 45.3438,101.281 66.8594,138.031 C72.8125,148.281 82.4219,162.516 82.4219,189.984 C82.4219,213.828 76.125,238.313 67.5156,262.141 C66.8594,264.141 66.2031,265.781 66.5313,267.109 C66.5313,269.094 67.8594,270.422 69.8438,270.422 C72.1563,270.422 73.8125,269.094 75.1406,266.781 C90.0313,240.297 95.6563,209.516 95.6563,179.406 C94,136.703 69.5156,105.25 69.5156,105.25 C70.5,105.25 39.0625,64.5469 30.125,50.6406 C17.875,31.7813 12.25,12.9063 11.5781,11.5781 C11.25,10.5938 8.28125,-1.32813 8.28125,-1.32813 C7.9375,-2.64063 6.28125,-3.96875 4.29688,-3.96875 C1.98438,-3.96875 0,-1.98438 0,0.328125 L0,75.1406 "/>
<path class="Hook" transform="matrix(0.822471,0,0,0.822471,3128.6,2272.51)" d="M0,-0.328125 C0,1.98438 1.98438,3.96875 4.29688,3.96875 C5.95313,3.96875 7.9375,2.64063 8.28125,1.32813 C8.28125,1 11.25,-10.5938 11.5781,-11.5781 C11.9219,-12.9063 14.8906,-25.4844 26.8125,-45.0156 C39.7188,-66.5313 59.5781,-82.0938 76.125,-105.25 C92.3438,-128.422 102.281,-150.266 102.281,-179.406 C102.281,-209.516 95.3281,-234.672 77.7813,-266.781 C76.7969,-269.094 74.7969,-270.422 72.8125,-270.422 C72.1563,-270.422 71.5,-270.422 71.1563,-270.094 C69.5156,-269.422 68.8438,-268.109 68.8438,-266.125 C68.8438,-265.125 69.1719,-263.469 69.8438,-262.141 C83.0781,-231.359 88.375,-213.828 88.375,-189.984 C88.375,-162.516 78.7813,-148.281 72.8125,-138.031 C51.2969,-101.281 16.5469,-83.4063 2.64063,-78.7813 C0.328125,-77.7813 0,-76.125 0,-75.1406 L0,-0.328125 "/>
<path class="Hook" transform="matrix(0.822471,0,0,0.822471,10104.7,2272.51)" d="M0,-0.328125 C0,1.98438 1.98438,3.96875 4.29688,3.96875 C5.95313,3.96875 7.9375,2.64063 8.28125,1.32813 C8.28125,1 11.25,-10.5938 11.5781,-11.5781 C11.9219,-12.9063 14.8906,-25.4844 26.8125,-45.0156 C39.7188,-66.5313 59.5781,-82.0938 76.125,-105.25 C92.3438,-128.422 102.281,-150.266 102.281,-179.406 C102.281,-209.516 95.3281,-234.672 77.7813,-266.781 C76.7969,-269.094 74.7969,-270.422 72.8125,-270.422 C72.1563,-270.422 71.5,-270.422 71.1563,-270.094 C69.5156,-269.422 68.8438,-268.109 68.8438,-266.125 C68.8438,-265.125 69.1719,-263.469 69.8438,-262.141 C83.0781,-231.359 88.375,-213.828 88.375,-189.984 C88.375,-162.516 78.7813,-148.281 72.8125,-138.031 C51.2969,-101.281 16.5469,-83.4063 2.64063,-78.7813 C0.328125,-77.7813 0,-76.125 0,-75.1406 L0,-0.328125 "/>
<path class="Hook" transform="matrix(0.822471,0,0,0.822471,5924.67,4176.5)" d="M0,-0.328125 C0,1.98438 1.98438,3.96875 4.29688,3.96875 C5.95313,3.96875 7.9375,2.64063 8.28125,1.32813 C8.28125,1 11.25,-10.5938 11.5781,-11.5781 C11.9219,-12.9063 14.8906,-25.4844 26.8125,-45.0156 C39.7188,-66.5313 59.5781,-82.0938 76.125,-105.25 C92.3438,-128.422 102.281,-150.266 102.281,-179.406 C102.281,-209.516 95.3281,-234.672 77.7813,-266.781 C76.7969,-269.094 74.7969,-270.422 72.8125,-270.422 C72.1563,-270.422 71.5,-270.422 71.1563,-270.094 C69.5156,-269.422 68.8438,-268.109 68.8438,-266.125 C68.8438,-265.125 69.1719,-263.469 69.8438,-262.141 C83.0781,-231.359 88.375,-213.828 88.375,-189.984 C88.375,-162.516 78.7813,-148.281 72.8125,-138.031 C51.2969,-101.281 16.5469,-83.4063 2.64063,-78.7813 C0.328125,-77.7813 0,-76.125 0,-75.1406 L0,-0.328125 "/>
<path class="Hook" transform="matrix(0.822471,0,0,0.822471,5134.77,2306.51)" d="M0,-0.328125 C0,1.98438 1.98438,3.96875 4.29688,3.96875 C5.95313,3.96875 7.9375,2.64063 8.28125,1.32813 C8.28125,1 11.25,-10.5938 11.5781,-11.5781 C11.9219,-12.9063 14.8906,-25.4844 26.8125,-45.0156 C39.7188,-66.5313 59.5781,-82.0938 76.125,-105.25 C92.3438,-128.422 102.281,-150.266 102.281,-179.406 C102.281,-209.516 95.3281,-234.672 77.7813,-266.781 C76.7969,-269.094 74.7969,-270.422 72.8125,-270.422 C72.1563,-270.422 71.5,-270.422 71.1563,-270.094 C69.5156,-269.422 68.8438,-268.109 68.8438,-266.125 C68.8438,-265.125 69.1719,-263.469 69.8438,-262.141 C83.0781,-231.359 88.375,-213.828 88.375,-189.984 C88.375,-162.516 78.7813,-148.281 72.8125,-138.031 C51.2969,-101.281 16.5469,-83.4063 2.64063,-78.7813 C0.328125,-77.7813 0,-76.125 0,-75.1406 L0,-0.328125 "/>
<path class="Hook" transform="matrix(0.822471,0,0,0.822471,2356.79,1949.51)" d="M0,75.1406 C0,76.125 0.328125,77.7813 2.64063,78.7813 C16.875,83.4063 45.3438,101.281 66.8594,138.031 C72.8125,148.281 82.4219,162.516 82.4219,189.984 C82.4219,213.828 76.125,238.313 67.5156,262.141 C66.8594,264.141 66.2031,265.781 66.5313,267.109 C66.5313,269.094 67.8594,270.422 69.8438,270.422 C72.1563,270.422 73.8125,269.094 75.1406,266.781 C90.0313,240.297 95.6563,209.516 95.6563,179.406 C94,136.703 69.5156,105.25 69.5156,105.25 C70.5,105.25 39.0625,64.5469 30.125,50.6406 C17.875,31.7813 12.25,12.9063 11.5781,11.5781 C11.25,10.5938 8.28125,-1.32813 8.28125,-1.32813 C7.9375,-2.64063 6.28125,-3.96875 4.29688,-3.96875 C1.98438,-3.96875 0,-1.98438 0,0.328125 L0,75.1406 "/>
<path class="Hook" transform="matrix(0.822471,0,0,0.822471,7334.19,3785.5)" d="M0,75.1406 C0,76.125 0.328125,77.7813 2.64063,78.7813 C16.875,83.4063 45.3438,101.281 66.8594,138.031 C72.8125,148.281 82.4219,162.516 82.4219,189.984 C82.4219,213.828 76.125,238.313 67.5156,262.141 C66.8594,264.141 66.2031,265.781 66.5313,267.109 C66.5313,269.094 67.8594,270.422 69.8438,270.422 C72.1563,270.422 73.8125,269.094 75.1406,266.781 C90.0313,240.297 95.6563,209.516 95.6563,179.406 C94,136.703 69.5156,105.25 69.5156,105.25 C70.5,105.25 39.0625,64.5469 30.125,50.6406 C17.875,31.7813 12.25,12.9063 11.5781,11.5781 C11.25,10.5938 8.28125,-1.32813 8.28125,-1.32813 C7.9375,-2.64063 6.28125,-3.96875 4.29688,-3.96875 C1.98438,-3.96875 0,-1.98438 0,0.328125 L0,75.1406 "/>
<path class="Note" transform="matrix(0.822471,0,0,0.822471,2275.19,2187.51)" d="M0,13.9063 C0,28.1406 10.2656,44.0156 37.0781,44.0156 C71.5,44.0156 107.578,15.8906 107.578,-13.2344 C107.578,-32.7656 91.0156,-43.6875 70.5,-43.6875 C38.3906,-43.6875 0,-16.5469 0,13.9063"/>
<path class="Note" transform="matrix(0.822471,0,0,0.822471,4622.73,2085.51)" d="M0,13.9063 C0,28.1406 10.2656,44.0156 37.0781,44.0156 C71.5,44.0156 107.578,15.8906 107.578,-13.2344 C107.578,-32.7656 91.0156,-43.6875 70.5,-43.6875 C38.3906,-43.6875 0,-16.5469 0,13.9063"/>
<path class="Note" transform="matrix(0.822471,0,0,0.822471,8778.15,3921.5)" d="M64.5469,33.7656 C55.2813,33.7656 48.9844,31.1094 44.6875,22.8438 C40.375,14.5625 34.4219,-6.625 34.0938,-15.5625 C33.4375,-24.5 36.7344,-29.7969 44.6875,-32.4375 C48.6563,-33.7656 53.9531,-34.4219 58.9219,-34.4219 C68.1875,-34.4219 74.1406,-32.4375 78.7813,-23.5 C83.4063,-14.5625 89.375,6.625 89.375,14.8906 C89.375,31.1094 78.1094,33.7656 64.5469,33.7656 M61.8906,-45.0156 C16.2188,-45.0156 0,-21.8438 0,-0.328125 C0,21.1875 16.2188,44.3594 61.8906,44.3594 C107.578,44.3594 123.453,21.1875 123.453,-0.328125 C123.453,-21.8438 107.578,-45.0156 61.8906,-45.0156"/>
<path class="Note" transform="matrix(0.822471,0,0,0.822471,4281.36,2051.51)" d="M0,13.9063 C0,28.1406 10.2656,44.0156 37.0781,44.0156 C71.5,44.0156 107.578,15.8906 107.578,-13.2344 C107.578,-32.7656 91.0156,-43.6875 70.5,-43.6875 C38.3906,-43.6875 0,-16.5469 0,13.9063"/>
<path class="Note" transform="matrix(0.822471,0,0,0.822471,1763.14,2187.51)" d="M0,13.9063 C0,28.1406 10.2656,44.0156 37.0781,44.0156 C71.5,44.0156 107.578,15.8906 107.578,-13.2344 C107.578,-32.7656 91.0156,-43.6875 70.5,-43.6875 C38.3906,-43.6875 0,-16.5469 0,13.9063"/>
<path class="Note" transform="matrix(0.822471,0,0,0.822471,3940,2017.51)" d="M0,13.9063 C0,28.1406 10.2656,44.0156 37.0781,44.0156 C71.5,44.0156 107.578,15.8906 107.578,-13.2344 C107.578,-32.7656 91.0156,-43.6875 70.5,-43.6875 C38.3906,-43.6875 0,-16.5469 0,13.9063"/>
<path class="Note" transform="matrix(0.822471,0,0,0.822471,2616.56,2051.51)" d="M0,13.9063 C0,28.1406 10.2656,44.0156 37.0781,44.0156 C71.5,44.0156 107.578,15.8906 107.578,-13.2344 C107.578,-32.7656 91.0156,-43.6875 70.5,-43.6875 C38.3906,-43.6875 0,-16.5469 0,13.9063"/>
<path class="Note" transform="matrix(0.822471,0,0,0.822471,3128.6,2051.51)" d="M0,13.9063 C0,28.1406 10.2656,44.0156 37.0781,44.0156 C71.5,44.0156 107.578,15.8906 107.578,-13.2344 C107.578,-32.7656 91.0156,-43.6875 70.5,-43.6875 C38.3906,-43.6875 0,-16.5469 0,13.9063"/>
<path class="Note" transform="matrix(0.822471,0,0,0.822471,3598.63,1983.51)" d="M0,13.9063 C0,28.1406 10.2656,44.0156 37.0781,44.0156 C71.5,44.0156 107.578,15.8906 107.578,-13.2344 C107.578,-32.7656 91.0156,-43.6875 70.5,-43.6875 C38.3906,-43.6875 0,-16.5469 0,13.9063"/>
<path class="Note" transform="matrix(0.822471,0,0,0.822471,6905.21,2085.51)" d="M0,13.9063 C0,28.1406 10.2656,44.0156 37.0781,44.0156 C71.5,44.0156 107.578,15.8906 107.578,-13.2344 C107.578,-32.7656 91.0156,-43.6875 70.5,-43.6875 C38.3906,-43.6875 0,-16.5469 0,13.9063"/>
<path class="Note" transform="matrix(0.822471,0,0,0.822471,1199.34,3853.5)" d="M0,13.9063 C0,28.1406 10.2656,44.0156 37.0781,44.0156 C71.5,44.0156 107.578,15.8906 107.578,-13.2344 C107.578,-32.7656 91.0156,-43.6875 70.5,-43.6875 C38.3906,-43.6875 0,-16.5469 0,13.9063"/>
<path class="Note" transform="matrix(0.822471,0,0,0.822471,7343.82,2153.51)" d="M0,13.9063 C0,28.1406 10.2656,44.0156 37.0781,44.0156 C71.5,44.0156 107.578,15.8906 107.578,-13.2344 C107.578,-32.7656 91.0156,-43.6875 70.5,-43.6875 C38.3906,-43.6875 0,-16.5469 0,13.9063"/>
<path class="Note" transform="matrix(0.822471,0,0,0.822471,9592.69,2051.51)" d="M0,13.9063 C0,28.1406 10.2656,44.0156 37.0781,44.0156 C71.5,44.0156 107.578,15.8906 107.578,-13.2344 C107.578,-32.7656 91.0156,-43.6875 70.5,-43.6875 C38.3906,-43.6875 0,-16.5469 0,13.9063"/>
<path class="Note" transform="matrix(0.822471,0,0,0.822471,1691.61,3887.5)" d="M0,13.9063 C0,28.1406 10.2656,44.0156 37.0781,44.0156 C71.5,44.0156 107.578,15.8906 107.578,-13.2344 C107.578,-32.7656 91.0156,-43.6875 70.5,-43.6875 C38.3906,-43.6875 0,-16.5469 0,13.9063"/>
<path class="Note" transform="matrix(0.822471,0,0,0.822471,2183.88,3921.5)" d="M0,13.9063 C0,28.1406 10.2656,44.0156 37.0781,44.0156 C71.5,44.0156 107.578,15.8906 107.578,-13.2344 C107.578,-32.7656 91.0156,-43.6875 70.5,-43.6875 C38.3906,-43.6875 0,-16.5469 0,13.9063"/>
<path class="Note" transform="matrix(0.822471,0,0,0.822471,9251.32,2187.51)" d="M0,13.9063 C0,28.1406 10.2656,44.0156 37.0781,44.0156 C71.5,44.0156 107.578,15.8906 107.578,-13.2344 C107.578,-32.7656 91.0156,-43.6875 70.5,-43.6875 C38.3906,-43.6875 0,-16.5469 0,13.9063"/>
<path class="Note" transform="matrix(0.822471,0,0,0.822471,2676.15,3955.5)" d="M0,13.9063 C0,28.1406 10.2656,44.0156 37.0781,44.0156 C71.5,44.0156 107.578,15.8906 107.578,-13.2344 C107.578,-32.7656 91.0156,-43.6875 70.5,-43.6875 C38.3906,-43.6875 0,-16.5469 0,13.9063"/>
<path class="Note" transform="matrix(0.822471,0,0,0.822471,10104.7,2051.51)" d="M0,13.9063 C0,28.1406 10.2656,44.0156 37.0781,44.0156 C71.5,44.0156 107.578,15.8906 107.578,-13.2344 C107.578,-32.7656 91.0156,-43.6875 70.5,-43.6875 C38.3906,-43.6875 0,-16.5469 0,13.9063"/>
<path class="Note" transform="matrix(0.822471,0,0,0.822471,3168.42,3955.5)" d="M0,13.9063 C0,28.1406 10.2656,44.0156 37.0781,44.0156 C71.5,44.0156 107.578,15.8906 107.578,-13.2344 C107.578,-32.7656 91.0156,-43.6875 70.5,-43.6875 C38.3906,-43.6875 0,-16.5469 0,13.9063"/>
<path class="Note" transform="matrix(0.822471,0,0,0.822471,6563.85,2119.51)" d="M0,13.9063 C0,28.1406 10.2656,44.0156 37.0781,44.0156 C71.5,44.0156 107.578,15.8906 107.578,-13.2344 C107.578,-32.7656 91.0156,-43.6875 70.5,-43.6875 C38.3906,-43.6875 0,-16.5469 0,13.9063"/>
<path class="Note" transform="matrix(0.822471,0,0,0.822471,3660.69,3955.5)" d="M0,13.9063 C0,28.1406 10.2656,44.0156 37.0781,44.0156 C71.5,44.0156 107.578,15.8906 107.578,-13.2344 C107.578,-32.7656 91.0156,-43.6875 70.5,-43.6875 C38.3906,-43.6875 0,-16.5469 0,13.9063"/>
<path class="Note" transform="matrix(0.822471,0,0,0.822471,6222.48,2085.51)" d="M0,13.9063 C0,28.1406 10.2656,44.0156 37.0781,44.0156 C71.5,44.0156 107.578,15.8906 107.578,-13.2344 C107.578,-32.7656 91.0156,-43.6875 70.5,-43.6875 C38.3906,-43.6875 0,-16.5469 0,13.9063"/>
<path class="Note" transform="matrix(0.822471,0,0,0.822471,8739.27,2187.51)" d="M0,13.9063 C0,28.1406 10.2656,44.0156 37.0781,44.0156 C71.5,44.0156 107.578,15.8906 107.578,-13.2344 C107.578,-32.7656 91.0156,-43.6875 70.5,-43.6875 C38.3906,-43.6875 0,-16.5469 0,13.9063"/>
<path class="Note" transform="matrix(0.822471,0,0,0.822471,4250.2,3921.5)" d="M0,13.9063 C0,28.1406 10.2656,44.0156 37.0781,44.0156 C71.5,44.0156 107.578,15.8906 107.578,-13.2344 C107.578,-32.7656 91.0156,-43.6875 70.5,-43.6875 C38.3906,-43.6875 0,-16.5469 0,13.9063"/>
<path class="Note" transform="matrix(0.822471,0,0,0.822471,5186.26,3989.5)" d="M0,13.9063 C0,28.1406 10.2656,44.0156 37.0781,44.0156 C71.5,44.0156 107.578,15.8906 107.578,-13.2344 C107.578,-32.7656 91.0156,-43.6875 70.5,-43.6875 C38.3906,-43.6875 0,-16.5469 0,13.9063"/>
<path class="Note" transform="matrix(0.822471,0,0,0.822471,7992.93,2153.51)" d="M0,13.9063 C0,28.1406 10.2656,44.0156 37.0781,44.0156 C71.5,44.0156 107.578,15.8906 107.578,-13.2344 C107.578,-32.7656 91.0156,-43.6875 70.5,-43.6875 C38.3906,-43.6875 0,-16.5469 0,13.9063"/>
<path class="Note" transform="matrix(0.822471,0,0,0.822471,5924.67,3955.5)" d="M0,13.9063 C0,28.1406 10.2656,44.0156 37.0781,44.0156 C71.5,44.0156 107.578,15.8906 107.578,-13.2344 C107.578,-32.7656 91.0156,-43.6875 70.5,-43.6875 C38.3906,-43.6875 0,-16.5469 0,13.9063"/>
<path class="Note" transform="matrix(0.822471,0,0,0.822471,5573.38,2119.51)" d="M0,13.9063 C0,28.1406 10.2656,44.0156 37.0781,44.0156 C71.5,44.0156 107.578,15.8906 107.578,-13.2344 C107.578,-32.7656 91.0156,-43.6875 70.5,-43.6875 C38.3906,-43.6875 0,-16.5469 0,13.9063"/>
<path class="Note" transform="matrix(0.822471,0,0,0.822471,6514.18,4023.5)" d="M0,13.9063 C0,28.1406 10.2656,44.0156 37.0781,44.0156 C71.5,44.0156 107.578,15.8906 107.578,-13.2344 C107.578,-32.7656 91.0156,-43.6875 70.5,-43.6875 C38.3906,-43.6875 0,-16.5469 0,13.9063"/>
<path class="Note" transform="matrix(0.822471,0,0,0.822471,7252.59,4023.5)" d="M0,13.9063 C0,28.1406 10.2656,44.0156 37.0781,44.0156 C71.5,44.0156 107.578,15.8906 107.578,-13.2344 C107.578,-32.7656 91.0156,-43.6875 70.5,-43.6875 C38.3906,-43.6875 0,-16.5469 0,13.9063"/>
<path class="Note" transform="matrix(0.822471,0,0,0.822471,7744.86,4057.5)" d="M0,13.9063 C0,28.1406 10.2656,44.0156 37.0781,44.0156 C71.5,44.0156 107.578,15.8906 107.578,-13.2344 C107.578,-32.7656 91.0156,-43.6875 70.5,-43.6875 C38.3906,-43.6875 0,-16.5469 0,13.9063"/>
<path class="Note" transform="matrix(0.822471,0,0,0.822471,5134.77,2085.51)" d="M0,13.9063 C0,28.1406 10.2656,44.0156 37.0781,44.0156 C71.5,44.0156 107.578,15.8906 107.578,-13.2344 C107.578,-32.7656 91.0156,-43.6875 70.5,-43.6875 C38.3906,-43.6875 0,-16.5469 0,13.9063"/>
<path class="Clef" transform="matrix(0.822471,0,0,0.822471,1176,2153.51)" d="M139.016,68.1875 C132.391,69.5156 126.109,70.1719 119.813,70.1719 C72.4844,70.1719 32.1094,37.0781 32.1094,-12.9063 C32.1094,-53.2969 60.5781,-89.375 89.7031,-114.531 C95.3281,-119.484 100.625,-124.125 105.594,-129.094 C108.563,-111.219 110.891,-95.6563 113.203,-82.0938 C83.0781,-73.1563 62.5625,-41.375 62.5625,-10.2656 C62.5625,12.9063 80.7656,44.6875 107.234,44.6875 C109.891,44.6875 112.875,43.3594 112.875,40.375 C112.875,37.4063 109.563,35.75 105.594,33.0938 C92.6719,25.1563 85.3906,16.5469 85.3906,0.328125 C85.3906,-19.8594 100.297,-36.0781 119.813,-40.7188 L139.016,68.1875 M109.891,-272.078 C112.875,-285.313 128.094,-320.078 145.313,-320.078 C150.266,-320.078 158.219,-303.859 158.219,-281.016 C158.219,-246.594 132.734,-220.766 109.891,-198.266 C107.906,-211.5 106.25,-224.406 106.25,-238.313 C106.25,-250.563 107.234,-261.813 109.891,-272.078 M186.016,6.95313 C186.016,30.4531 176.422,54.6094 152.922,64.2188 C145.969,24.5 137.031,-28.1406 134.719,-42.7031 C164.5,-42.7031 186.016,-22.5 186.016,6.95313 M40.375,169.797 C40.375,191.641 57.2656,220.438 101.953,220.438 C117.5,220.438 131.078,216.469 142.984,209.188 C160.859,196.609 165.5,174.766 165.5,153.906 C165.5,141 163.516,126.109 160.203,107.234 C159.203,100.625 157.219,90.6875 155.234,77.7813 C187.672,67.1875 211.844,33.4375 211.844,-0.65625 C211.844,-50.6406 176.422,-84.4063 128.094,-84.4063 C124.781,-104.266 121.469,-123.797 118.5,-142.328 C153.578,-179.063 177.75,-220.438 177.75,-273.063 C177.75,-303.188 168.469,-327.688 163.188,-339.594 C155.234,-356.484 145.641,-368.063 139.672,-368.063 C137.359,-368.063 127.109,-364.094 116.172,-351.188 C95,-326.031 89.0313,-283.656 89.0313,-255.859 C89.0313,-237.984 90.6875,-221.766 96.3125,-184.688 C95.9844,-184.359 78.7813,-166.828 71.8281,-161.188 C41.7031,-133.063 0,-93.0156 0,-26.8125 C0,35.0781 53.9531,83.7344 115.516,83.7344 C125.109,83.7344 134.047,82.75 141.672,81.4219 C147.953,113.203 151.594,136.375 151.594,153.906 C151.594,188.328 134.047,206.547 100.625,206.547 C92.6719,206.547 85.7344,204.891 85.0625,204.891 C84.7344,204.547 84.0781,204.219 84.0781,203.891 C84.0781,203.234 84.7344,202.906 85.7344,202.563 C101.281,200.25 116.844,187.016 116.844,165.828 C116.844,147.953 103.266,129.094 78.4531,129.094 C55.2813,129.094 40.375,147.953 40.375,169.797"/>
<path class="Clef" transform="matrix(0.822471,0,0,0.822471,737.996,4023.5)" d="M139.016,68.1875 C132.391,69.5156 126.109,70.1719 119.813,70.1719 C72.4844,70.1719 32.1094,37.0781 32.1094,-12.9063 C32.1094,-53.2969 60.5781,-89.375 89.7031,-114.531 C95.3281,-119.484 100.625,-124.125 105.594,-129.094 C108.563,-111.219 110.891,-95.6563 113.203,-82.0938 C83.0781,-73.1563 62.5625,-41.375 62.5625,-10.2656 C62.5625,12.9063 80.7656,44.6875 107.234,44.6875 C109.891,44.6875 112.875,43.3594 112.875,40.375 C112.875,37.4063 109.563,35.75 105.594,33.0938 C92.6719,25.1563 85.3906,16.5469 85.3906,0.328125 C85.3906,-19.8594 100.297,-36.0781 119.813,-40.7188 L139.016,68.1875 M109.891,-272.078 C112.875,-285.313 128.094,-320.078 145.313,-320.078 C150.266,-320.078 158.219,-303.859 158.219,-281.016 C158.219,-246.594 132.734,-220.766 109.891,-198.266 C107.906,-211.5 106.25,-224.406 106.25,-238.313 C106.25,-250.563 107.234,-261.813 109.891,-272.078 M186.016,6.95313 C186.016,30.4531 176.422,54.6094 152.922,64.2188 C145.969,24.5 137.031,-28.1406 134.719,-42.7031 C164.5,-42.7031 186.016,-22.5 186.016,6.95313 M40.375,169.797 C40.375,191.641 57.2656,220.438 101.953,220.438 C117.5,220.438 131.078,216.469 142.984,209.188 C160.859,196.609 165.5,174.766 165.5,153.906 C165.5,141 163.516,126.109 160.203,107.234 C159.203,100.625 157.219,90.6875 155.234,77.7813 C187.672,67.1875 211.844,33.4375 211.844,-0.65625 C211.844,-50.6406 176.422,-84.4063 128.094,-84.4063 C124.781,-104.266 121.469,-123.797 118.5,-142.328 C153.578,-179.063 177.75,-220.438 177.75,-273.063 C177.75,-303.188 168.469,-327.688 163.188,-339.594 C155.234,-356.484 145.641,-368.063 139.672,-368.063 C137.359,-368.063 127.109,-364.094 116.172,-351.188 C95,-326.031 89.0313,-283.656 89.0313,-255.859 C89.0313,-237.984 90.6875,-221.766 96.3125,-184.688 C95.9844,-184.359 78.7813,-166.828 71.8281,-161.188 C41.7031,-133.063 0,-93.0156 0,-26.8125 C0,35.0781 53.9531,83.7344 115.516,83.7344 C125.109,83.7344 134.047,82.75 141.672,81.4219 C147.953,113.203 151.594,136.375 151.594,153.906 C151.594,188.328 134.047,206.547 100.625,206.547 C92.6719,206.547 85.7344,204.891 85.0625,204.891 C84.7344,204.547 84.0781,204.219 84.0781,203.891 C84.0781,203.234 84.7344,202.906 85.7344,202.563 C101.281,200.25 116.844,187.016 116.844,165.828 C116.844,147.953 103.266,129.094 78.4531,129.094 C55.2813,129.094 40.375,147.953 40.375,169.797"/>
<path class="KeySig" transform="matrix(0.822471,0,0,0.822471,1401.1,2085.51)" d="M43.6875,-13.2344 C43.6875,12.9063 30.125,26.8125 10.9219,42.0313 L11.9219,-22.5 C12.5781,-25.4844 17.5469,-35.0781 30.7813,-35.0781 C42.7031,-35.0781 43.6875,-23.8281 43.6875,-16.875 L43.6875,-13.2344 M39.7188,-51.2969 C23.1719,-51.2969 13.5781,-41.0469 11.9219,-39.0625 L13.2344,-145.313 C13.2344,-147.953 11.25,-149.938 8.60938,-149.938 L4.64063,-149.938 C1.98438,-149.938 0,-147.953 0,-145.313 L1.65625,53.625 C1.65625,56.2656 3.64063,58.25 6.28125,58.25 C6.95313,58.25 8.28125,57.9219 8.9375,57.5938 C37.4063,43.3594 67.1875,16.2188 67.1875,-17.875 C67.1875,-35.0781 59.25,-51.2969 39.7188,-51.2969"/>
<path class="KeySig" transform="matrix(0.822471,0,0,0.822471,963.096,3955.5)" d="M43.6875,-13.2344 C43.6875,12.9063 30.125,26.8125 10.9219,42.0313 L11.9219,-22.5 C12.5781,-25.4844 17.5469,-35.0781 30.7813,-35.0781 C42.7031,-35.0781 43.6875,-23.8281 43.6875,-16.875 L43.6875,-13.2344 M39.7188,-51.2969 C23.1719,-51.2969 13.5781,-41.0469 11.9219,-39.0625 L13.2344,-145.313 C13.2344,-147.953 11.25,-149.938 8.60938,-149.938 L4.64063,-149.938 C1.98438,-149.938 0,-147.953 0,-145.313 L1.65625,53.625 C1.65625,56.2656 3.64063,58.25 6.28125,58.25 C6.95313,58.25 8.28125,57.9219 8.9375,57.5938 C37.4063,43.3594 67.1875,16.2188 67.1875,-17.875 C67.1875,-35.0781 59.25,-51.2969 39.7188,-51.2969"/>
<path class="TimeSig" transform="matrix(0.822471,0,0,0.822471,1521.05,2019)" d="M69.5156,66.8594 C58.5781,66.8594 49.6563,51.9688 49.6563,33.4375 C49.6563,14.8906 58.5781,-0.328125 69.5156,-0.328125 C80.4375,-0.328125 89.7031,14.8906 89.7031,33.4375 C89.7031,51.9688 80.4375,66.8594 69.5156,66.8594 M81.75,-15.8906 C61.5625,-15.8906 54.2813,-9.9375 49.6563,-4.96875 C48.6563,-11.9219 48,-17.2188 48,-22.5 C48,-41.375 54.6094,-65.875 77.7813,-65.875 C86.0625,-65.875 91.0156,-63.2188 94.3281,-59.5781 C87.375,-56.5938 81.75,-47.6563 81.75,-40.0469 C81.75,-28.1406 91.0156,-18.8594 102.938,-18.8594 C114.859,-18.8594 124.453,-28.1406 124.453,-40.0469 L124.453,-41.0469 C124.453,-44.0156 123.797,-48.9844 122.469,-51.6406 C118.172,-63.5469 104.266,-81.0938 71.1563,-81.0938 C41.375,-81.0938 19.8594,-52.625 13.2344,-37.4063 C9.9375,-29.4531 4.96875,-13.2344 4.96875,5.29688 C4.96875,25.4844 10.5938,48.3281 30.125,65.5313 C49.3125,80.0938 61.5625,80.7656 73.1563,80.7656 C84.7344,80.7656 128.094,67.1875 128.094,28.7969 C128.094,-3.64063 102.609,-15.8906 81.75,-15.8906"/>
<path class="TimeSig" transform="matrix(0.822471,0,0,0.822471,1520.24,2152.7)" d="M88.7031,-14.8906 C66.2031,-22.1719 41.375,-33.0938 41.375,-48 C41.375,-60.9063 53.2969,-66.2031 67.5156,-66.2031 C88.0469,-66.2031 101.953,-56.5938 101.953,-41.375 C101.953,-25.4844 94.6719,-17.875 88.7031,-14.8906 M67.5156,63.5469 C46.3438,63.5469 28.1406,51.9688 28.1406,33.4375 C28.1406,11.25 45.3438,5.95313 45.3438,5.95313 C67.8594,13.5781 99.9531,24.8281 99.9531,43.0313 C99.9531,51.9688 88.375,63.5469 67.5156,63.5469 M107.234,-5.95313 C118.172,-14.2344 125.781,-24.8281 125.781,-38.0625 C125.781,-61.8906 99.625,-81.4219 67.5156,-81.4219 C35.4219,-81.4219 9.26563,-61.8906 9.26563,-38.0625 C9.26563,-24.8281 12.5781,-12.9063 28.1406,-2.98438 C13.2344,5.625 4.96875,17.875 4.96875,33.7656 C4.96875,60.5781 33.0938,82.0938 67.5156,82.0938 C101.953,82.0938 130.078,60.5781 130.078,33.7656 C130.078,17.875 124.453,2.98438 107.234,-5.95313"/>
<path class="Beam" fill-rule="evenodd" d="M3598.63,2187.49 L4288.16,2221.49 L4288.16,2255.53 L3598.63,2221.53 L3598.63,2187.49 "/>
<path class="Beam" fill-rule="evenodd" d="M6304.08,1881.51 L6993.61,1881.51 L6993.61,1915.51 L6304.08,1915.51 L6304.08,1881.51 "/>
<path class="Beam" fill-rule="evenodd" d="M1199.34,4057.49 L2190.68,4091.49 L2190.68,4125.51 L1199.34,4091.51 L1199.34,4057.49 "/>
<path class="Beam" fill-rule="evenodd" d="M2676.15,4125.5 L3667.49,4125.5 L3667.49,4159.5 L2676.15,4159.5 L2676.15,4125.5 "/>
<path class="StaffText" d="M8763.4,3679.85 L8681.88,3679.85 L8681.88,3686.29 L8684.35,3686.29 C8692.16,3686.43 8694.76,3686.84 8695.87,3688.21 C8696.68,3689.45 8696.68,3689.71 8696.68,3696.7 L8696.68,3761.91 C8696.68,3768.9 8696.68,3769.16 8695.87,3770.4 C8694.76,3771.77 8692.16,3772.32 8684.35,3772.32 L8681.88,3772.32 L8681.88,3778.76 L8728.88,3778.76 L8728.88,3772.32 L8724.35,3772.32 C8716.54,3772.32 8713.95,3771.77 8712.85,3770.4 C8712.02,3769.16 8712.02,3768.76 8712.02,3761.91 L8712.02,3730.8 L8714.76,3730.8 C8728.88,3730.26 8733.95,3735.34 8734.49,3750.54 L8740.93,3750.54 L8740.93,3705.6 L8734.49,3705.6 C8733.66,3719.02 8728.32,3724.24 8715.32,3724.37 L8712.02,3724.37 L8712.02,3693.13 C8711.88,3687.38 8713.26,3686.43 8720.65,3686.29 L8726.96,3686.29 C8749.43,3686.15 8755.04,3691.23 8759.29,3714.79 L8765.32,3714.79 L8763.4,3679.85 M8792.7,3680.8 C8788.31,3680.8 8784.76,3684.37 8784.76,3688.76 C8784.76,3693.13 8788.31,3696.7 8792.56,3696.7 C8797.09,3696.7 8800.65,3693.13 8800.65,3688.76 C8800.65,3684.37 8797.09,3680.8 8792.7,3680.8 M8799.13,3714.91 L8773.38,3716.43 L8773.38,3722.32 L8780.37,3722.32 C8785.57,3722.46 8786.26,3723.27 8786.26,3729.16 L8786.26,3768.35 C8786.12,3770.4 8785.98,3771.23 8785.43,3771.91 C8784.48,3773.15 8781.87,3773.7 8775.98,3773.82 L8775.02,3773.82 L8775.02,3778.76 L8810.51,3778.76 L8810.51,3773.82 L8809.54,3773.82 C8800.37,3773.55 8799.13,3772.87 8799.13,3767.93 L8799.13,3714.91 M8841.32,3714.91 L8817.62,3716.43 L8817.62,3722.32 L8822.54,3722.32 C8827.76,3722.46 8828.43,3723.27 8828.43,3729.16 L8828.43,3768.35 C8828.31,3770.4 8828.16,3771.23 8827.62,3771.91 C8826.65,3773.15 8824.06,3773.7 8818.16,3773.82 L8817.62,3773.82 L8817.62,3778.76 L8852.27,3778.76 L8852.27,3773.82 L8851.73,3773.82 C8842.54,3773.55 8841.32,3772.87 8841.32,3767.93 L8841.32,3747.66 C8841.32,3740.95 8842.27,3734.79 8843.77,3731.63 C8846.65,3725.46 8852.82,3721.23 8858.71,3721.23 C8862.27,3721.23 8866.38,3723.13 8868.43,3726.01 C8870.49,3729.02 8871.45,3733.13 8871.45,3739.71 L8871.45,3768.35 C8871.32,3770.4 8871.18,3771.23 8870.63,3771.91 C8869.66,3773.15 8866.93,3773.7 8861.04,3773.82 L8860.49,3773.82 L8860.49,3778.76 L8895.15,3778.76 L8895.15,3773.82 L8894.6,3773.82 C8885.56,3773.55 8884.34,3772.87 8884.34,3767.93 L8884.34,3740.4 C8884.34,3730.54 8883.91,3728.07 8881.45,3723.41 C8878.02,3716.84 8871.18,3712.87 8862.96,3712.87 C8854.06,3712.87 8847.34,3716.98 8841.32,3726.01 L8841.32,3714.91 M8961.62,3747.93 C8961.76,3727.38 8950.1,3712.87 8933.4,3712.87 C8915.87,3712.87 8902.71,3728.07 8902.71,3748.62 C8902.71,3767.93 8915.18,3780.82 8933.66,3780.82 C8946.82,3780.82 8955.99,3774.37 8961.62,3761.37 L8956.82,3758.76 C8951.21,3769.3 8945.45,3773.41 8936.27,3773.41 C8929.29,3773.41 8924.21,3770.54 8920.65,3764.37 C8918.2,3760.26 8917.09,3755.48 8917.23,3747.93 L8961.62,3747.93 M8917.37,3742.04 C8917.37,3732.46 8921.76,3718.76 8933.26,3718.76 C8941.48,3718.76 8946.96,3726.01 8946.96,3737.12 C8946.96,3740.95 8945.73,3742.04 8941.34,3742.04 L8917.37,3742.04 "/>
<path class="NoteDot" transform="matrix(0.822471,0,0,0.822471,7466.23,2119.51)" d="M0,0 C0,9.26563 7.28125,16.5469 16.5469,16.5469 C25.8125,16.5469 33.0938,9.26563 33.0938,0 C33.0938,-9.26563 25.8125,-16.5469 16.5469,-16.5469 C7.28125,-16.5469 0,-9.26563 0,0"/>
<path class="NoteDot" transform="matrix(0.822471,0,0,0.822471,4372.61,3921.5)" d="M0,0 C0,9.26563 7.28125,16.5469 16.5469,16.5469 C25.8125,16.5469 33.0938,9.26563 33.0938,0 C33.0938,-9.26563 25.8125,-16.5469 16.5469,-16.5469 C7.28125,-16.5469 0,-9.26563 0,0"/>
<path class="NoteDot" transform="matrix(0.822471,0,0,0.822471,8115.34,2119.51)" d="M0,0 C0,9.26563 7.28125,16.5469 16.5469,16.5469 C25.8125,16.5469 33.0938,9.26563 33.0938,0 C33.0938,-9.26563 25.8125,-16.5469 16.5469,-16.5469 C7.28125,-16.5469 0,-9.26563 0,0"/>
<path class="NoteDot" transform="matrix(0.822471,0,0,0.822471,7867.27,4057.5)" d="M0,0 C0,9.26563 7.28125,16.5469 16.5469,16.5469 C25.8125,16.5469 33.0938,9.26563 33.0938,0 C33.0938,-9.26563 25.8125,-16.5469 16.5469,-16.5469 C7.28125,-16.5469 0,-9.26563 0,0"/>
<path class="NoteDot" transform="matrix(0.822471,0,0,0.822471,5695.79,2119.51)" d="M0,0 C0,9.26563 7.28125,16.5469 16.5469,16.5469 C25.8125,16.5469 33.0938,9.26563 33.0938,0 C33.0938,-9.26563 25.8125,-16.5469 16.5469,-16.5469 C7.28125,-16.5469 0,-9.26563 0,0"/>
</svg>
