<?xml version="1.0" encoding="UTF-8" standalone="no"?>
<svg width="210.362mm" height="55.3354mm" viewBox="0 0 9938.34 2614.27"
 xmlns="http://www.w3.org/2000/svg" xmlns:xlink="http://www.w3.org/1999/xlink" version="1.2" baseProfile="full">
<title>tenore.musicxml (2)</title>
<desc>Generated by MuseScore Studio 4.7.4</desc>
<path class="" fill="#ffffff" fill-rule="evenodd" d="M0,0 L9938.34,0 L9938.34,2614.27 L0,2614.27 L0,0 "/>
<polyline class="StaffLines" fill="none" stroke="#000000" stroke-width="7.48" stroke-linejoin="bevel" points="167,487.997 9926.34,487.997" />
<polyline class="StaffLines" fill="none" stroke="#000000" stroke-width="7.48" stroke-linejoin="bevel" points="167,555.997 9926.34,555.997" />
<polyline class="StaffLines" fill="none" stroke="#000000" stroke-width="7.48" stroke-linejoin="bevel" points="167,623.996 9926.34,623.996" />
<polyline class="StaffLines" fill="none" stroke="#000000" stroke-width="7.48" stroke-linejoin="bevel" points="167,691.996 9926.34,691.996" />
<polyline class="StaffLines" fill="none" stroke="#000000" stroke-width="7.48" stroke-linejoin="bevel" points="167,759.996 9926.34,759.996" />
<polyline class="StaffLines" fill="none" stroke="#000000" stroke-width="7.48" stroke-linejoin="bevel" points="167,2153.99 9926.34,2153.99" />
<polyline class="StaffLines" fill="none" stroke="#000000" stroke-width="7.48" stroke-linejoin="bevel" points="167,2221.99 9926.34,2221.99" />
<polyline class="StaffLines" fill="none" stroke="#000000" stroke-width="7.48" stroke-linejoin="bevel" points="167,2289.99 9926.34,2289.99" />
<polyline class="StaffLines" fill="none" stroke="#000000" stroke-width="7.48" stroke-linejoin="bevel" points="167,2357.99 9926.34,2357.99" />
<polyline class="StaffLines" fill="none" stroke="#000000" stroke-width="7.48" stroke-linejoin="bevel" points="167,2425.99 9926.34,2425.99" />
<path class="Text" d="M96.2844,93.3281 L94.2688,102.469 C92.6125,109.797 91.5188,112.172 90.05,113.094 C88.2219,114.375 87.8625,114.375 76.3313,114.547 L41.0188,114.547 C47.425,109.063 52.175,105.578 59.3156,100.828 C85.1125,84.1719 90.425,80.1406 95.7219,73.375 C101.956,65.1406 105.613,55.4375 105.613,46.8438 C105.613,27.2656 86.3938,12.4375 60.5969,12.4375 C35.7063,12.4375 16.4875,28.5469 16.4875,49.4063 C16.4875,62.2188 23.6281,70.4531 34.6125,70.4531 C44.1281,70.4531 50.1594,64.4063 50.1594,54.8906 C50.1594,47.0313 46.6906,42.4531 38.2688,38.4219 C36.2531,37.5 35.3469,36.4063 35.3469,34.9531 C35.3469,29.0938 45.2219,22.875 54.3781,22.875 C67.175,22.875 74.5031,30.7344 74.5031,44.2813 C74.5031,59.4688 68.6438,70.2656 49.2531,90.9375 C28.7531,112.719 21.6125,120.953 12.4719,134.125 L12.4719,142.734 C17.2219,142.188 19.2375,142 21.9875,142 L90.7844,142 C94.2688,142 96.4563,142.188 101.956,142.734 L106.159,93.3281 L96.2844,93.3281 "/>
<path class="MeasureNumber" d="M222.046,257.842 L218.187,257.842 C210.875,263.295 196.781,267.951 187.203,267.951 L185.609,273.795 L194.781,273.795 C202.89,273.795 203.828,274.061 203.828,276.451 C203.828,277.654 203.828,277.654 202.5,282.436 L188.265,335.639 C186.531,342.295 186.406,342.686 185.203,343.889 C183.875,345.217 181.078,345.607 174.031,345.748 L168.312,345.748 L167.656,351.998 L216.859,351.998 L217.656,345.748 L210.468,345.748 C201.828,345.748 199.968,345.076 199.968,342.154 C199.968,341.232 200.5,338.17 201.171,335.639 L222.046,257.842 M281.687,258.373 C253.093,258.373 238.859,297.732 238.859,321.139 C238.859,340.42 248.437,353.998 262,353.998 C284.734,353.998 305.093,324.467 305.093,291.482 C305.093,271.67 295.64,258.373 281.687,258.373 M281.546,263.686 C288.468,263.686 292.187,269.811 292.187,281.248 C292.187,294.279 288.859,311.17 283.406,324.873 C277.031,341.498 270.64,348.67 262.656,348.67 C255.484,348.67 251.484,342.295 251.484,330.982 C251.484,313.701 257.609,290.561 266.125,275.123 C270.25,267.686 275.562,263.686 281.546,263.686"/>
<path class="MeasureNumber" d="M222.046,1923.83 L218.187,1923.83 C210.875,1929.29 196.781,1933.94 187.203,1933.94 L185.609,1939.79 L194.781,1939.79 C202.89,1939.79 203.828,1940.05 203.828,1942.44 C203.828,1943.64 203.828,1943.64 202.5,1948.43 L188.265,2001.63 C186.531,2008.29 186.406,2008.68 185.203,2009.88 C183.875,2011.21 181.078,2011.6 174.031,2011.74 L168.312,2011.74 L167.656,2017.99 L216.859,2017.99 L217.656,2011.74 L210.468,2011.74 C201.828,2011.74 199.968,2011.07 199.968,2008.14 C199.968,2007.22 200.5,2004.16 201.171,2001.63 L222.046,1923.83 M296.046,1923.83 L292.187,1923.83 C284.875,1929.29 270.781,1933.94 261.203,1933.94 L259.609,1939.79 L268.781,1939.79 C276.89,1939.79 277.828,1940.05 277.828,1942.44 C277.828,1943.64 277.828,1943.64 276.5,1948.43 L262.265,2001.63 C260.531,2008.29 260.406,2008.68 259.203,2009.88 C257.875,2011.21 255.078,2011.6 248.031,2011.74 L242.312,2011.74 L241.656,2017.99 L290.859,2017.99 L291.656,2011.74 L284.468,2011.74 C275.828,2011.74 273.968,2011.07 273.968,2008.14 C273.968,2007.22 274.5,2004.16 275.171,2001.63 L296.046,1923.83 "/>
<path class="InstrumentName" d="M96.7187,574.59 L14.6562,574.59 L12.6094,612.668 L18.5,612.668 C20.4062,598.84 24.1094,581.028 41.6406,581.028 C46.1719,581.028 48.0781,582.528 48.0781,585.965 L48.0781,656.653 C48.0781,663.637 48.0781,663.903 47.2656,665.137 C46.1719,666.512 43.5625,667.059 35.75,667.059 L32.1875,667.059 L32.1875,673.496 L79.1875,673.496 L79.1875,667.059 L75.625,667.059 C67.9531,667.059 65.3437,666.512 64.25,665.137 C63.4219,663.903 63.4219,663.637 63.4219,656.653 L63.4219,585.965 C63.4219,582.528 65.3437,581.028 69.8594,581.028 C87.4062,581.028 90.9687,598.965 92.875,612.668 L98.7656,612.668 L96.7187,574.59 "/>
<path class="InstrumentName" d="M96.7187,2240.58 L14.6562,2240.58 L12.6094,2278.66 L18.5,2278.66 C20.4062,2264.83 24.1094,2247.02 41.6406,2247.02 C46.1719,2247.02 48.0781,2248.52 48.0781,2251.96 L48.0781,2322.64 C48.0781,2329.63 48.0781,2329.89 47.2656,2331.13 C46.1719,2332.5 43.5625,2333.05 35.75,2333.05 L32.1875,2333.05 L32.1875,2339.49 L79.1875,2339.49 L79.1875,2333.05 L75.625,2333.05 C67.9531,2333.05 65.3437,2332.5 64.25,2331.13 C63.4219,2329.89 63.4219,2329.63 63.4219,2322.64 L63.4219,2251.96 C63.4219,2248.52 65.3437,2247.02 69.8594,2247.02 C87.4062,2247.02 90.9687,2264.96 92.875,2278.66 L98.7656,2278.66 L96.7187,2240.58 "/>
<polyline class="BarLine" fill="none" stroke="#000000" stroke-width="12.24" stroke-linejoin="bevel" points="9920.22,484.257 9920.22,763.736" />
<polyline class="BarLine" fill="none" stroke="#000000" stroke-width="12.24" stroke-linejoin="bevel" points="9920.22,2150.25 9920.22,2429.73" />
<path class="Arpeggio" transform="matrix(0,-0.822471,0.822471,0,644.933,2459.75)" d="M78.7813,-28.1406 C78.7813,-28.1406 76.7969,-30.4531 74.1406,-32.7656 C73.1563,-33.7656 71.8281,-34.0938 70.8281,-34.0938 C69.8438,-34.0938 69.1719,-33.7656 68.5156,-33.0938 L64.875,-29.4531 C64.2188,-28.7969 63.5469,-28.4688 62.8906,-28.4688 C61.5625,-28.4688 60.9063,-29.4531 60.9063,-29.4531 C60.9063,-29.4531 39.7188,-47.6563 36.4063,-50.6406 C32.7656,-53.2969 29.125,-54.2813 25.8125,-54.2813 C18.8594,-54.2813 12.5781,-50.3125 9.9375,-47.3281 L-5.95313,-31.4375 C-6.95313,-30.4531 -7.28125,-29.7969 -7.28125,-28.7969 C-7.28125,-27.1406 -5.95313,-25.8125 -5.95313,-25.8125 C-5.95313,-25.8125 -3.96875,-23.5 -1.32813,-21.1875 C-0.328125,-20.1875 0.65625,-19.8594 1.65625,-19.8594 C2.64063,-19.8594 3.3125,-20.1875 3.96875,-20.8594 L7.60938,-24.5 C8.28125,-25.1563 8.9375,-25.4844 9.59375,-25.4844 C10.9219,-25.4844 11.9219,-24.5 11.9219,-24.5 C11.9219,-24.5 33.0938,-6.625 36.4063,-3.64063 C40.0469,-1 43.6875,0 47,0 C53.9531,0 60.2344,-3.96875 62.8906,-6.95313 L78.7813,-22.8438 C79.7656,-23.8281 80.0938,-24.8281 80.0938,-25.4844 C80.0938,-27.1406 78.7813,-28.1406 78.7813,-28.1406"/>
<path class="Arpeggio" transform="matrix(0,-0.822471,0.822471,0,644.933,2399.87)" d="M78.7813,-28.1406 C78.7813,-28.1406 76.7969,-30.4531 74.1406,-32.7656 C73.1563,-33.7656 71.8281,-34.0938 70.8281,-34.0938 C69.8438,-34.0938 69.1719,-33.7656 68.5156,-33.0938 L64.875,-29.4531 C64.2188,-28.7969 63.5469,-28.4688 62.8906,-28.4688 C61.5625,-28.4688 60.9063,-29.4531 60.9063,-29.4531 C60.9063,-29.4531 39.7188,-47.6563 36.4063,-50.6406 C32.7656,-53.2969 29.125,-54.2813 25.8125,-54.2813 C18.8594,-54.2813 12.5781,-50.3125 9.9375,-47.3281 L-5.95313,-31.4375 C-6.95313,-30.4531 -7.28125,-29.7969 -7.28125,-28.7969 C-7.28125,-27.1406 -5.95313,-25.8125 -5.95313,-25.8125 C-5.95313,-25.8125 -3.96875,-23.5 -1.32813,-21.1875 C-0.328125,-20.1875 0.65625,-19.8594 1.65625,-19.8594 C2.64063,-19.8594 3.3125,-20.1875 3.96875,-20.8594 L7.60938,-24.5 C8.28125,-25.1563 8.9375,-25.4844 9.59375,-25.4844 C10.9219,-25.4844 11.9219,-24.5 11.9219,-24.5 C11.9219,-24.5 33.0938,-6.625 36.4063,-3.64063 C40.0469,-1 43.6875,0 47,0 C53.9531,0 60.2344,-3.96875 62.8906,-6.95313 L78.7813,-22.8438 C79.7656,-23.8281 80.0938,-24.8281 80.0938,-25.4844 C80.0938,-27.1406 78.7813,-28.1406 78.7813,-28.1406"/>
<path class="Note" transform="matrix(0.822471,0,0,0.822471,661.79,657.996)" d="M64.5469,33.7656 C55.2813,33.7656 48.9844,31.1094 44.6875,22.8438 C40.375,14.5625 34.4219,-6.625 34.0938,-15.5625 C33.4375,-24.5 36.7344,-29.7969 44.6875,-32.4375 C48.6563,-33.7656 53.9531,-34.4219 58.9219,-34.4219 C68.1875,-34.4219 74.1406,-32.4375 78.7813,-23.5 C83.4063,-14.5625 89.375,6.625 89.375,14.8906 C89.375,31.1094 78.1094,33.7656 64.5469,33.7656 M61.8906,-45.0156 C16.2188,-45.0156 0,-21.8438 0,-0.328125 C0,21.1875 16.2188,44.3594 61.8906,44.3594 C107.578,44.3594 123.453,21.1875 123.453,-0.328125 C123.453,-21.8438 107.578,-45.0156 61.8906,-45.0156"/>
<path class="Note" transform="matrix(0.822471,0,0,0.822471,672.133,2391.99)" d="M64.5469,33.7656 C55.2813,33.7656 48.9844,31.1094 44.6875,22.8438 C40.375,14.5625 34.4219,-6.625 34.0938,-15.5625 C33.4375,-24.5 36.7344,-29.7969 44.6875,-32.4375 C48.6563,-33.7656 53.9531,-34.4219 58.9219,-34.4219 C68.1875,-34.4219 74.1406,-32.4375 78.7813,-23.5 C83.4063,-14.5625 89.375,6.625 89.375,14.8906 C89.375,31.1094 78.1094,33.7656 64.5469,33.7656 M61.8906,-45.0156 C16.2188,-45.0156 0,-21.8438 0,-0.328125 C0,21.1875 16.2188,44.3594 61.8906,44.3594 C107.578,44.3594 123.453,21.1875 123.453,-0.328125 C123.453,-21.8438 107.578,-45.0156 61.8906,-45.0156"/>
<path class="Clef" transform="matrix(0.822471,0,0,0.822471,217.999,691.996)" d="M119.813,70.1719 C72.4844,70.1719 32.1094,37.0781 32.1094,-12.9063 C32.1094,-53.2969 60.5781,-89.375 89.7031,-114.859 C95.3281,-119.484 100.625,-124.125 105.594,-129.094 C108.563,-111.219 110.891,-95.9844 113.203,-82.0938 C83.0781,-73.4844 62.5625,-41.375 62.5625,-10.5938 C62.5625,12.9063 80.7656,44.6875 107.234,44.6875 C109.891,44.6875 112.875,43.3594 112.875,40.0469 C112.875,37.4063 109.891,35.4219 105.594,32.7656 C92.6719,25.1563 85.3906,16.2188 85.3906,0.328125 C85.3906,-19.8594 100.625,-36.0781 119.813,-40.7188 L139.016,67.8594 C132.391,69.1719 126.438,70.1719 119.813,70.1719 M109.891,-272.078 C113.203,-285.313 128.094,-320.078 145.313,-320.078 C150.266,-320.078 158.547,-304.188 158.547,-281.016 C158.547,-246.922 132.734,-221.109 109.891,-198.266 C107.906,-211.5 106.25,-224.75 106.25,-238.313 C106.25,-250.891 107.578,-261.813 109.891,-272.078 M152.922,63.875 C145.969,24.5 137.031,-28.1406 134.719,-42.7031 C168.141,-42.7031 182.375,-19.5313 185.359,-3.64063 C185.688,-1 186.344,2.64063 186.344,6.625 C186.344,30.4531 176.422,54.2813 152.922,63.875 M106.906,290.281 C99.625,290.281 94.6719,285.641 94.6719,278.703 C94.6719,272.078 97.6406,266.781 103.266,263.469 C104.594,264.141 104.922,264.141 105.922,264.797 C109.891,266.781 109.891,266.781 110.547,267.438 C116.844,271.078 119.484,274.391 119.484,279.031 C119.484,285.313 114.188,290.281 106.906,290.281 M119.484,250.563 C114.531,247.922 113.203,247.25 112.203,246.594 L111.547,246.266 C106.578,243.281 104.922,240.969 104.922,236.984 C104.922,231.031 109.563,226.734 116.172,226.734 C122.469,226.734 126.438,230.703 126.438,237.656 C126.438,242.953 124.453,246.594 119.484,250.563 M211.844,-0.65625 C211.844,-50.6406 176.422,-84.4063 128.094,-84.4063 C124.781,-104.266 121.813,-123.797 118.828,-142.328 C153.578,-179.063 178.078,-220.766 178.078,-273.063 C178.078,-303.188 168.813,-327.688 163.188,-339.594 C155.234,-356.484 145.641,-368.063 140.016,-368.063 C137.688,-368.063 127.109,-364.094 116.516,-351.188 C95,-326.031 89.0313,-284 89.0313,-256.188 C89.0313,-238.313 90.6875,-222.094 96.3125,-184.688 C95.9844,-184.688 78.7813,-167.156 71.8281,-161.188 C41.7031,-133.391 0,-93.0156 0,-27.1406 C0,35.0781 53.9531,83.7344 115.516,83.7344 C125.109,83.7344 134.047,82.75 142,81.4219 C147.953,112.875 151.922,136.375 151.922,153.906 C151.922,188.328 134.047,206.547 100.625,206.547 C92.6719,206.547 85.7344,204.891 85.0625,204.547 C84.7344,204.547 84.0781,204.219 84.0781,203.891 C84.0781,203.234 84.7344,202.906 85.7344,202.563 C101.281,200.25 116.844,186.688 116.844,165.828 C116.844,147.953 103.266,129.094 78.4531,129.094 C55.2813,129.094 40.7188,147.953 40.7188,169.797 C40.7188,191.641 57.2656,220.438 101.953,220.438 C144.641,220.438 165.5,196.281 165.5,153.906 C165.5,141 163.516,126.109 160.203,107.234 C159.203,100.625 157.547,90.3594 155.234,77.7813 C187.672,66.8594 211.844,33.4375 211.844,-0.65625 M140.016,237.328 C140.016,225.078 128.75,219.781 117.828,219.781 C103.938,219.781 90.3594,228.391 90.3594,243.281 C90.3594,249.563 92.6719,254.203 97.3125,258.844 C88.7031,262.141 80.0938,268.766 80.0938,279.031 C80.0938,289.953 90.0313,297.234 104.594,297.234 C122.469,297.234 135.047,287.297 135.047,273.063 C135.047,265.453 131.734,259.172 125.781,254.859 C135.375,250.563 140.016,245.266 140.016,237.328"/>
<path class="Clef" transform="matrix(0.822471,0,0,0.822471,217.999,2357.99)" d="M119.813,70.1719 C72.4844,70.1719 32.1094,37.0781 32.1094,-12.9063 C32.1094,-53.2969 60.5781,-89.375 89.7031,-114.859 C95.3281,-119.484 100.625,-124.125 105.594,-129.094 C108.563,-111.219 110.891,-95.9844 113.203,-82.0938 C83.0781,-73.4844 62.5625,-41.375 62.5625,-10.5938 C62.5625,12.9063 80.7656,44.6875 107.234,44.6875 C109.891,44.6875 112.875,43.3594 112.875,40.0469 C112.875,37.4063 109.891,35.4219 105.594,32.7656 C92.6719,25.1563 85.3906,16.2188 85.3906,0.328125 C85.3906,-19.8594 100.625,-36.0781 119.813,-40.7188 L139.016,67.8594 C132.391,69.1719 126.438,70.1719 119.813,70.1719 M109.891,-272.078 C113.203,-285.313 128.094,-320.078 145.313,-320.078 C150.266,-320.078 158.547,-304.188 158.547,-281.016 C158.547,-246.922 132.734,-221.109 109.891,-198.266 C107.906,-211.5 106.25,-224.75 106.25,-238.313 C106.25,-250.891 107.578,-261.813 109.891,-272.078 M152.922,63.875 C145.969,24.5 137.031,-28.1406 134.719,-42.7031 C168.141,-42.7031 182.375,-19.5313 185.359,-3.64063 C185.688,-1 186.344,2.64063 186.344,6.625 C186.344,30.4531 176.422,54.2813 152.922,63.875 M106.906,290.281 C99.625,290.281 94.6719,285.641 94.6719,278.703 C94.6719,272.078 97.6406,266.781 103.266,263.469 C104.594,264.141 104.922,264.141 105.922,264.797 C109.891,266.781 109.891,266.781 110.547,267.438 C116.844,271.078 119.484,274.391 119.484,279.031 C119.484,285.313 114.188,290.281 106.906,290.281 M119.484,250.563 C114.531,247.922 113.203,247.25 112.203,246.594 L111.547,246.266 C106.578,243.281 104.922,240.969 104.922,236.984 C104.922,231.031 109.563,226.734 116.172,226.734 C122.469,226.734 126.438,230.703 126.438,237.656 C126.438,242.953 124.453,246.594 119.484,250.563 M211.844,-0.65625 C211.844,-50.6406 176.422,-84.4063 128.094,-84.4063 C124.781,-104.266 121.813,-123.797 118.828,-142.328 C153.578,-179.063 178.078,-220.766 178.078,-273.063 C178.078,-303.188 168.813,-327.688 163.188,-339.594 C155.234,-356.484 145.641,-368.063 140.016,-368.063 C137.688,-368.063 127.109,-364.094 116.516,-351.188 C95,-326.031 89.0313,-284 89.0313,-256.188 C89.0313,-238.313 90.6875,-222.094 96.3125,-184.688 C95.9844,-184.688 78.7813,-167.156 71.8281,-161.188 C41.7031,-133.391 0,-93.0156 0,-27.1406 C0,35.0781 53.9531,83.7344 115.516,83.7344 C125.109,83.7344 134.047,82.75 142,81.4219 C147.953,112.875 151.922,136.375 151.922,153.906 C151.922,188.328 134.047,206.547 100.625,206.547 C92.6719,206.547 85.7344,204.891 85.0625,204.547 C84.7344,204.547 84.0781,204.219 84.0781,203.891 C84.0781,203.234 84.7344,202.906 85.7344,202.563 C101.281,200.25 116.844,186.688 116.844,165.828 C116.844,147.953 103.266,129.094 78.4531,129.094 C55.2813,129.094 40.7188,147.953 40.7188,169.797 C40.7188,191.641 57.2656,220.438 101.953,220.438 C144.641,220.438 165.5,196.281 165.5,153.906 C165.5,141 163.516,126.109 160.203,107.234 C159.203,100.625 157.547,90.3594 155.234,77.7813 C187.672,66.8594 211.844,33.4375 211.844,-0.65625 M140.016,237.328 C140.016,225.078 128.75,219.781 117.828,219.781 C103.938,219.781 90.3594,228.391 90.3594,243.281 C90.3594,249.563 92.6719,254.203 97.3125,258.844 C88.7031,262.141 80.0938,268.766 80.0938,279.031 C80.0938,289.953 90.0313,297.234 104.594,297.234 C122.469,297.234 135.047,287.297 135.047,273.063 C135.047,265.453 131.734,259.172 125.781,254.859 C135.375,250.563 140.016,245.266 140.016,237.328"/>
<path class="KeySig" transform="matrix(0.822471,0,0,0.822471,443.1,623.996)" d="M43.6875,-13.2344 C43.6875,12.9063 30.125,26.8125 10.9219,42.0313 L11.9219,-22.5 C12.5781,-25.4844 17.5469,-35.0781 30.7813,-35.0781 C42.7031,-35.0781 43.6875,-23.8281 43.6875,-16.875 L43.6875,-13.2344 M39.7188,-51.2969 C23.1719,-51.2969 13.5781,-41.0469 11.9219,-39.0625 L13.2344,-145.313 C13.2344,-147.953 11.25,-149.938 8.60938,-149.938 L4.64063,-149.938 C1.98438,-149.938 0,-147.953 0,-145.313 L1.65625,53.625 C1.65625,56.2656 3.64063,58.25 6.28125,58.25 C6.95313,58.25 8.28125,57.9219 8.9375,57.5938 C37.4063,43.3594 67.1875,16.2188 67.1875,-17.875 C67.1875,-35.0781 59.25,-51.2969 39.7188,-51.2969"/>
<path class="KeySig" transform="matrix(0.822471,0,0,0.822471,443.1,2289.99)" d="M43.6875,-13.2344 C43.6875,12.9063 30.125,26.8125 10.9219,42.0313 L11.9219,-22.5 C12.5781,-25.4844 17.5469,-35.0781 30.7813,-35.0781 C42.7031,-35.0781 43.6875,-23.8281 43.6875,-16.875 L43.6875,-13.2344 M39.7188,-51.2969 C23.1719,-51.2969 13.5781,-41.0469 11.9219,-39.0625 L13.2344,-145.313 C13.2344,-147.953 11.25,-149.938 8.60938,-149.938 L4.64063,-149.938 C1.98438,-149.938 0,-147.953 0,-145.313 L1.65625,53.625 C1.65625,56.2656 3.64063,58.25 6.28125,58.25 C6.95313,58.25 8.28125,57.9219 8.9375,57.5938 C37.4063,43.3594 67.1875,16.2188 67.1875,-17.875 C67.1875,-35.0781 59.25,-51.2969 39.7188,-51.2969"/>
</svg>
